<svg xmlns="http://www.w3.org/2000/svg" height="1024" preserveAspectRatio="none" style="display: block;" version="1.1" viewBox="0 0 2048 2048" width="1024">
<defs>
	<linearGradient gradientUnits="userSpaceOnUse" id="Gradient1" x1="592.65" x2="595.723" y1="701.875" y2="693.056">
		<stop class="stop0" offset="0" stop-color="rgb(213,211,213)" stop-opacity="1"></stop>
		<stop class="stop1" offset="1" stop-color="rgb(255,255,255)" stop-opacity="1"></stop>
	</linearGradient>
	<linearGradient gradientUnits="userSpaceOnUse" id="Gradient2" x1="521.064" x2="529.997" y1="602.174" y2="591.523">
		<stop class="stop0" offset="0" stop-color="rgb(164,167,180)" stop-opacity="1"></stop>
		<stop class="stop1" offset="1" stop-color="rgb(255,255,255)" stop-opacity="1"></stop>
	</linearGradient>
	<linearGradient gradientUnits="userSpaceOnUse" id="Gradient3" x1="656.722" x2="620.406" y1="964.272" y2="950.394">
		<stop class="stop0" offset="0" stop-color="rgb(107,121,151)" stop-opacity="1"></stop>
		<stop class="stop1" offset="1" stop-color="rgb(131,141,154)" stop-opacity="1"></stop>
	</linearGradient>
	<linearGradient gradientUnits="userSpaceOnUse" id="Gradient4" x1="1160.79" x2="1206.96" y1="323.992" y2="305.472">
		<stop class="stop0" offset="0" stop-color="rgb(94,108,135)" stop-opacity="1"></stop>
		<stop class="stop1" offset="1" stop-color="rgb(122,135,151)" stop-opacity="1"></stop>
	</linearGradient>
	<linearGradient gradientUnits="userSpaceOnUse" id="Gradient5" x1="500.118" x2="498.778" y1="665.533" y2="677.387">
		<stop class="stop0" offset="0" stop-color="rgb(22,34,66)" stop-opacity="1"></stop>
		<stop class="stop1" offset="1" stop-color="rgb(44,63,105)" stop-opacity="1"></stop>
	</linearGradient>
</defs>
<path d="M 0 0 L 2048 0 L 2048 2048 L 0 2048 L 0 0 z" fill="none" transform="translate(0,0)"></path>
<path d="M 966.134 74.2328 L 967.464 74.4428 C 980.533 76.3911 976.404 69.0721 984.932 67.4528 C 992.415 68.5868 1009.37 81.5389 1016.75 86.6288 C 1075.24 126.975 1127.76 169.996 1170.25 228.178 C 1217.38 292.732 1262.31 393.126 1252.17 474.953 C 1251.2 482.799 1247.67 493.701 1245.17 501.115 C 1250.4 515.746 1256.27 534.756 1263.09 548.468 C 1320.3 663.445 1371.62 782.073 1407.36 905.67 L 1409.44 905.098 C 1405.4 854.476 1427.45 793.032 1459.82 755.598 C 1522.17 683.477 1635.12 685.172 1711.76 732.392 C 1723.61 739.698 1735.8 745.201 1746.44 754.686 C 1747.83 755.929 1749.18 757.221 1750.48 758.559 L 1748.9 758.358 C 1727.53 755.523 1707.89 746.288 1683.01 743.478 C 1669.8 741.932 1656.43 742.413 1643.37 744.905 C 1572.03 759.232 1441.71 845.912 1427.58 922.77 C 1421.37 956.54 1444.46 1022.62 1455.28 1057.23 C 1478.23 1128.34 1502.48 1199.03 1528.03 1269.25 C 1531.71 1233.58 1534.07 1194.67 1543.43 1159.87 C 1491.39 1086.06 1551.89 982.474 1601.91 923.613 C 1624.53 896.994 1644.46 863.573 1673.26 843.314 C 1683.87 835.848 1715.76 818.343 1728.88 817.27 L 1731.04 818.3 C 1732.43 828.817 1699.65 885.154 1693.68 899.155 C 1687.72 913.118 1680.59 929.003 1677.07 944.786 C 1666.13 993.871 1676.33 1059.7 1645.45 1101.62 C 1632.17 1119.63 1610.4 1129.58 1592.38 1141.69 C 1582.83 1148.11 1570.89 1159.56 1560.79 1164.36 C 1553.9 1215.1 1547.77 1267.21 1550.85 1318.42 C 1551.04 1321.67 1555.85 1332.03 1557.48 1335.33 C 1603.39 1428.02 1657.48 1517 1714.38 1603.31 C 1724.8 1619.12 1734.59 1636.15 1745.34 1651.46 C 1740.17 1637.34 1734.06 1623.46 1729.05 1609.44 C 1684.3 1484.19 1682.81 1341.23 1740.03 1219.6 C 1755.91 1185.84 1776.23 1150.8 1800.85 1122.06 C 1828.01 1090.37 1866.84 1065.35 1903.09 1045.05 C 1903.8 1044.65 1905.15 1044.7 1906 1044.69 L 1907.11 1046.52 C 1903.73 1058.04 1892.07 1075.61 1886.96 1088.64 C 1844.21 1197.64 1842.66 1316.33 1837.51 1431.72 C 1832.99 1533.18 1822.65 1630.68 1803.61 1730.43 C 1803.73 1730.81 1803.84 1731.18 1803.97 1731.56 C 1810.25 1750.34 1867.03 1818.3 1881.68 1837.31 C 1898.11 1858.63 1913.74 1880.59 1930.43 1901.7 C 1941.54 1915.74 1959.46 1933.91 1966.73 1949.71 C 1969.75 1956.29 1970.87 1963.66 1967.81 1970.44 C 1965.5 1975.56 1961.17 1980.99 1955.61 1982.71 C 1950.43 1984.31 1944.75 1982.88 1940.12 1980.34 C 1926.57 1972.91 1905.11 1941.14 1894.5 1928 C 1876.73 1905.97 1859.66 1883.36 1841.95 1861.25 C 1834.9 1852.44 1828.63 1841.95 1819.68 1835.01 C 1808.76 1826.54 1794.11 1820.95 1781.33 1816.04 C 1693.72 1782.37 1592.18 1801.33 1504.31 1824.41 C 1464.53 1834.86 1425.69 1849.46 1386.47 1861.82 C 1286.17 1893.42 1180.71 1913 1077.12 1885.87 C 1062.99 1882.17 1049.31 1877.75 1035.4 1873.4 C 1030.19 1871.77 1024.35 1870.93 1019.5 1868.37 C 1018.24 1867.71 1017.35 1866.87 1016.46 1865.79 L 1016.48 1864.18 C 1021.73 1862.21 1031.49 1862.99 1037.24 1863.33 C 1050.12 1864.1 1062.51 1863.41 1075.34 1862.12 C 1109.82 1858.41 1143.72 1850.53 1176.3 1838.65 C 1262.55 1807.29 1332.11 1752.45 1415.9 1718.24 C 1501.72 1683.2 1604.2 1681.16 1688.51 1720.94 C 1719.88 1735.51 1740.97 1747.64 1770.16 1767.21 C 1703.01 1672.85 1639.9 1575.69 1580.98 1475.99 C 1562.73 1444.59 1546.87 1411.71 1529.25 1380.5 C 1498.26 1359.96 1465.32 1341.59 1435.25 1319.83 C 1420.03 1308.68 1405.41 1296.75 1391.44 1284.07 C 1376.02 1270.29 1370.34 1262.52 1350.28 1254.11 C 1323 1242.68 1296.09 1240.08 1266.88 1245.93 C 1197.99 1261.46 1138.27 1304.04 1077.43 1337.93 C 1064.9 1344.91 1053.01 1352.58 1040.52 1359.58 C 1027.07 1366.98 953.421 1401.47 942.36 1397.91 L 941.948 1396.6 C 951.857 1381.06 963.626 1366.77 972.638 1350.66 C 979.401 1338.57 986.783 1326.33 993.192 1314.12 C 1024.06 1255.14 1072.9 1204.85 1139.87 1189.8 C 1194.5 1177.53 1247.01 1190.77 1298.2 1209.83 C 1309.57 1214.06 1320.5 1220.09 1331.73 1224.72 C 1290.62 1193.31 1264.49 1158.91 1230.17 1121.32 C 1210.07 1099.32 1190.9 1075.72 1170.83 1054.28 C 1100.96 979.583 1018.76 911.192 926.903 865.292 C 910.315 857.003 871.551 838.507 854.067 840.962 C 843.182 842.49 827.718 845.724 815.044 846.909 C 756.498 852.381 715.4 857.653 663.915 889.336 C 644.419 956.84 621.498 1020.76 615.123 1091.17 C 613.782 1105.97 611.377 1121.14 611.859 1136.03 C 612.208 1152.26 617.63 1178.34 600.164 1188.3 C 591.992 1192.96 579 1192 570.561 1188.49 C 512.536 1164.4 458.399 1096.93 430.758 1041.51 C 419.734 1019.4 414.292 1000.01 408.927 977.533 C 347.198 1018.32 266.872 1084.45 220.309 1142.73 C 212.431 1152.85 205.972 1164.05 200.751 1175.51 C 194.173 1189.93 193.596 1231.89 169.66 1227.41 C 144.518 1220.72 159.921 1179.48 155.352 1163.65 C 152.634 1154.24 145.554 1138.98 142.09 1130.08 C 100.531 1023.35 156.102 922.161 235.905 852.054 C 245.989 843.195 258.6 835.078 268.764 825.971 C 243.621 822.974 219.614 819.881 195.721 811.031 C 185.765 807.344 176.668 800.812 166.554 797.575 C 138.091 790.966 72.9142 794.888 72.9306 752.573 C 72.9334 745.35 84.8357 724.324 89.3781 717.988 C 111.104 687.687 121.149 653.282 136.478 620.059 C 151.786 586.882 186.849 559.561 219.578 545.072 C 233.931 538.639 248.286 532.216 263.79 528.922 C 235.377 499.78 199.849 458.591 197.589 415.817 C 196.759 400.104 208.953 392.131 221.493 386.458 C 224.917 376.769 227.338 366.79 237.571 362.321 C 248.496 357.549 266.646 358.182 278.54 357.626 C 339.696 354.768 397.792 359.416 454.941 382.713 C 466.694 387.504 475.796 391.578 486.621 398.698 C 481.788 372.058 478.075 345.227 475.493 318.275 C 470.434 259.457 472.224 209.695 507.204 158.916 C 529.095 127.243 560.34 103.206 596.566 90.1677 C 600.762 88.613 607.66 85.6528 611.883 84.9253 C 618.714 83.7121 625.742 85.4036 631.273 89.5921 C 636.111 93.2109 639.178 97.0928 641.931 102.364 C 634.617 114.844 626.857 127.22 626.339 142.077 C 624.576 192.614 652.155 242.093 672.774 286.575 C 692.039 234.747 727.918 183.941 778.979 159.132 C 812.566 142.812 854.688 136.486 890.102 150.048 C 907.047 156.537 917.272 165.943 931.34 177.24 C 930.056 164.918 928.888 153.073 929.023 140.662 C 929.139 129.942 927.195 119.399 926.691 108.7 C 936.598 92.293 933.412 83.9443 954.169 83.875 C 958.256 80.6834 962.203 77.6293 966.134 74.2328 z" fill="rgb(23,39,75)" transform="translate(0,0)"></path>
<path d="M 1409.44 905.098 C 1410.51 909.174 1413 915.398 1411.28 918.339 L 1411.34 918.203 C 1408.98 913.894 1408.44 910.4 1407.36 905.67 L 1409.44 905.098 z" fill="rgb(161,168,183)" transform="translate(0,0)"></path>
<path d="M 910.039 195.319 C 919.946 194.52 923.994 195.222 933.409 197.516 C 933.636 199.697 933.842 201.881 934.027 204.067 C 942.304 291.845 1002.22 422.633 1071.94 478.721 C 1105.71 505.884 1151.51 532.504 1196.38 527.913 C 1208.05 537.446 1222.4 561.787 1230.34 575.32 C 1315.47 720.505 1360.83 889.005 1408.67 1048.58 C 1419.38 1083.35 1430.37 1118.04 1441.62 1152.65 C 1450.83 1181.14 1459.68 1209.34 1470.45 1237.34 C 1480.91 1264.51 1489.8 1291.82 1502.43 1318.15 C 1493.08 1310.44 1482.45 1302.34 1472.47 1295.51 C 1401.02 1246.64 1340.03 1186.45 1283.22 1121.47 C 1271.43 1107.97 1259.07 1095.33 1246.99 1082.07 C 1171.29 998.973 1089.3 915.751 990.334 860.595 C 970.558 849.574 949.115 838.344 928.424 829.266 C 912.803 822.414 893.918 816.937 878.729 809.63 L 877.551 809.05 C 871.304 771.316 851.942 744.251 817.705 727.375 C 876.291 681.463 930.918 625.394 1006.75 608.96 C 1039.05 601.96 1074.58 624.669 1094.05 594.613 C 1086.12 567.763 1074.14 550.609 1052.01 532.185 C 995.353 484.997 908.941 460.821 836.387 454.516 C 817.503 452.875 793.746 455.082 775.059 456.57 C 783.462 437.905 792.284 417.371 795.817 397.229 C 806.252 337.746 799.422 268.795 848.755 224.215 C 866.774 207.932 886.185 199.519 910.039 195.319 z" fill="rgb(255,255,255)" transform="translate(0,0)"></path>
<path d="M 674.159 808.119 C 684.515 746.683 688.383 685.05 669.672 624.575 C 666.276 613.598 661.178 602.271 659.017 590.901 C 654.265 551.03 688.74 511.28 717.855 489.524 C 763.434 455.466 821.658 457.452 875.119 465.927 C 923.642 473.619 995.823 498.287 1035.44 527.554 C 1050.77 538.85 1064.17 552.552 1075.12 568.129 C 1078.39 572.749 1084.71 582.535 1084.87 588.13 C 1073.63 584.832 1049.27 580.2 1038.41 583.715 C 942.632 594.196 862.531 633.953 793.961 701.488 C 752.266 742.552 724.1 775.599 674.159 808.119 z" fill="rgb(255,255,255)" transform="translate(0,0)"></path>
<path d="M 885.687 556.432 C 921.48 553.007 1014.6 562.648 1043.32 582.205 C 955.503 560.459 896.35 554.884 808.558 574.138 C 780.026 580.75 752.552 591.297 726.925 605.475 C 718.984 609.786 692.181 626.485 685.282 626.964 L 685.148 626.796 C 689.011 617.075 726.609 598.078 737.475 592.552 C 783.011 569.394 834.987 559.334 885.687 556.432 z" fill="rgb(23,39,75)" transform="translate(0,0)"></path>
<path d="M 654.616 727.004 C 659.138 726.89 669.385 728.984 674.051 729.878 C 677.183 856.067 593.461 961.451 598.358 1087.28 C 597.441 1109.88 628.045 1203.86 573.266 1181.9 C 514.87 1158.49 463.301 1091.09 435.454 1036.09 C 414.898 995.493 405.174 937.373 420.694 894.588 C 436.578 850.8 484.273 802.045 526.116 782.041 C 554.909 768.431 584.028 755.522 613.447 743.325 C 609.167 746.359 604.979 749.522 600.889 752.807 C 543.366 799.346 518.751 851.694 509.909 924.887 C 502.219 988.548 531.935 1089.46 572.895 1139.67 C 567.279 1126.07 559.33 1111.56 552.866 1098.08 C 486.319 959.306 503.557 802.27 654.616 727.004 z" fill="rgb(255,255,255)" transform="translate(0,0)"></path>
<path d="M 612.414 93.1297 C 614.284 92.6992 613.364 92.597 615.159 93.5599 C 604.58 108.783 595.56 131.94 597.316 150.651 C 602.815 209.237 633.475 272.03 653.858 325.879 C 672.4 374.86 695.765 444.061 699.485 494.842 C 676.01 517.382 658.756 540.752 652.209 573.376 C 618.347 481.612 558.222 395.857 553.773 294.825 C 553.532 289.334 553.331 281.452 550.806 276.658 L 549.259 276.36 C 544.767 283.451 549.543 318.685 550.994 328.866 C 556.605 368.225 570.958 405.83 586.295 442.27 C 604.232 486.039 626.441 527.228 643.992 570.913 C 657.338 604.788 667.28 639.907 673.674 675.75 C 640.704 639.304 610.995 598 585.095 556.299 C 573.521 537.664 561.56 519.3 549.36 501.069 L 551.264 500.524 L 552.493 500.186 C 559.966 498.059 572.374 491.121 567.742 482.556 C 557.816 464.205 523.262 449.524 505.568 441.366 C 503.96 435.804 502.406 430.227 500.907 424.635 C 487.062 373.707 474.625 286.802 483.659 234.671 C 487.504 213.539 494.916 193.215 505.578 174.569 C 527.89 136.045 569.128 104.619 612.414 93.1297 z" fill="rgb(255,255,255)" transform="translate(0,0)"></path>
<path d="M 586.697 129.959 C 586.307 133.271 583.843 136.884 582.066 140.008 C 573.359 155.318 567.817 172.743 562.959 189.585 C 561.343 195.188 559.769 207.082 556.231 210.197 C 549.659 198.738 575.209 139.965 586.697 129.959 z" fill="rgb(23,39,75)" transform="translate(0,0)"></path>
<path d="M 341.626 665.437 C 365.477 663.399 396.547 696.347 408.108 666.565 C 426.908 669.046 446.269 670.436 464.853 673.696 C 528.296 684.824 587.927 701.45 648.597 722.326 C 629.716 724.733 606.408 738.498 588.51 745.841 C 558.376 758.203 528.868 772.885 499.036 785.792 C 468.873 798.842 436.276 805.715 404.216 812.208 C 342.882 822.845 270.561 824.099 209.549 808.354 C 196.095 804.882 177.968 794.639 165.848 787.658 C 141.705 773.751 122.155 750.579 92.5952 755.103 C 152.958 695.551 259.738 671.312 341.626 665.437 z" fill="rgb(255,255,255)" transform="translate(0,0)"></path>
<path d="M 1882.3 1079.9 C 1882.53 1083.06 1865.65 1128.08 1863.37 1136.23 C 1833.52 1242.95 1835.99 1352.41 1828.7 1462.25 C 1823.06 1547.19 1815.75 1633.93 1799.6 1718.16 C 1793.97 1698.76 1790.97 1668.63 1788.94 1648.05 C 1780.21 1559.3 1778.44 1467.32 1790.45 1378.88 C 1794.31 1350.62 1799.37 1322.53 1805.61 1294.7 C 1808.51 1281.62 1811.87 1268.65 1815.67 1255.8 C 1817.86 1248.65 1825.73 1229.04 1823.01 1223.2 L 1821.15 1223.52 C 1817.62 1226.66 1816.74 1229.95 1814.88 1234.36 C 1804.8 1259.2 1799.42 1287.82 1793.85 1313.93 C 1765.73 1445.84 1771.15 1567.53 1786.77 1700.03 C 1782.75 1692.64 1780.38 1679.8 1778.25 1671.45 C 1766.46 1625.17 1760.67 1575.03 1756.24 1527.33 C 1744.24 1398.07 1761.37 1253.04 1832.9 1141.84 C 1844.77 1123.39 1867.52 1097.73 1882.3 1079.9 z" fill="rgb(125,132,148)" transform="translate(0,0)"></path>
<path d="M 295.456 527.144 C 296.815 526.936 299.14 526.546 300.248 527.457 C 318.736 542.661 335.27 560.062 355.302 573.41 C 363.228 578.692 371.858 572.912 375.729 574.359 C 396.283 582.037 415.501 594.504 435.84 602.862 C 474.176 618.254 510.49 632.768 547.914 649.534 C 565.111 657.238 582.161 662.98 598.471 672.135 C 596.882 673.706 580.444 665.046 577.381 664.074 C 518.657 645.436 457.202 608.933 393.822 620.23 C 382.805 622.194 377.902 628.102 372.857 636.512 C 354.429 625.137 335.746 613.744 314.988 607.064 C 307.534 604.665 292.701 600.984 291.553 612.933 C 291.146 617.169 293.749 619.931 296.333 622.909 C 306.122 632.83 332.926 650.664 345.48 658.914 C 321.567 660.484 299.954 662.659 276.324 666.277 C 216.197 675.482 115.284 710.362 79.0047 761.567 C 84.0972 732.697 101.642 715.931 114.172 690.419 C 134.871 648.274 140.522 607.741 180.017 577.765 C 216.193 550.308 251.78 538.071 295.456 527.144 z" fill="rgb(255,255,255)" transform="translate(0,0)"></path>
<path d="M 1527.43 1700.41 C 1531.96 1699.79 1541.63 1699.67 1546.22 1699.62 C 1614.71 1698.98 1675.02 1717.07 1733.38 1752.51 C 1747.19 1760.9 1764.37 1769.71 1776.64 1780.27 C 1782.61 1785.4 1790.84 1795.43 1797.39 1801.89 C 1748.2 1771.82 1705.68 1747.23 1648.53 1735.1 C 1559.99 1715.82 1469.73 1730.23 1387.43 1766.38 C 1376.69 1771.1 1322 1792.23 1319.9 1802.38 L 1321.15 1803.81 C 1325.24 1804.33 1348.84 1790.94 1356.07 1787.7 C 1394.47 1770.49 1434.12 1754.19 1475.28 1744.44 C 1546.55 1727.56 1627.15 1730.93 1695.91 1756.72 C 1727.3 1768.5 1757.09 1785.27 1785.58 1802.47 C 1796.45 1809.14 1801.42 1812.21 1810.24 1821.28 C 1791.57 1813.75 1774.63 1802.56 1756.5 1793.97 C 1686.81 1760.92 1598.06 1754.84 1522.77 1767.64 C 1475.98 1775.6 1425.67 1793.9 1381.65 1810.39 C 1293.61 1843.36 1207.42 1873.52 1112.16 1872.24 C 1102.57 1872.17 1065.44 1872.51 1058.02 1869.75 C 1060.36 1868.92 1090.3 1867.09 1095.21 1866.42 C 1126.03 1862.08 1156.26 1854.27 1185.32 1843.13 C 1310.39 1794.49 1388.2 1710.91 1527.43 1700.41 z" fill="rgb(125,132,148)" transform="translate(0,0)"></path>
<path d="M 470.913 803.265 L 471.151 803.381 L 471.016 804.452 C 465.151 808.697 435.142 823.714 425.634 829.363 C 294.223 907.45 197.255 999.585 158.406 1151.21 L 151.981 1136.52 C 137.321 1099.5 129.836 1054.92 138.386 1015.57 C 154.918 939.496 216.916 868.52 281.172 827.043 C 350.046 827.524 403.537 824.988 470.913 803.265 z" fill="rgb(255,255,255)" transform="translate(0,0)"></path>
<path d="M 468.653 812.883 C 469.357 813.518 468.946 813.056 469.555 814.505 C 420.646 864.096 403.086 893.864 407.062 964.652 C 391.609 972.915 374.693 985.013 359.567 994.871 C 299.7 1033.89 239.412 1080.66 196.999 1138.79 C 179.79 1162.38 175.15 1179.65 164.397 1205.11 L 162.474 1203.36 C 159.657 1187.6 164.931 1154.83 168.951 1139.51 C 194.893 1040.61 261.754 952.619 342.573 891.586 C 379.235 863.899 428.902 836.149 468.653 812.883 z" fill="rgb(255,255,255)" transform="translate(0,0)"></path>
<path d="M 1720.25 826.976 L 1721.01 827.266 C 1722.24 831.868 1700.55 871.581 1696.71 877.983 C 1664.61 931.568 1665.62 986.368 1658.81 1046.62 C 1653.78 1091.21 1630.78 1113.12 1592.81 1133.76 C 1585.05 1137.97 1569.12 1150.76 1561.06 1156.78 C 1574.42 1083.85 1599.25 1013.5 1634.62 948.341 C 1638.77 940.533 1657.71 911.415 1656.21 906.154 L 1652.8 906.202 C 1649.69 908.746 1646.68 914.023 1644.39 917.557 C 1618.41 962.645 1595.31 1008.07 1579.09 1057.73 C 1568.6 1089.85 1558.23 1121.5 1546.71 1153.28 C 1522.21 1101.84 1525.71 1071.51 1548.38 1018.93 C 1564.68 978.19 1591.58 948.934 1617.8 915.461 C 1652.4 871.303 1665.39 847.795 1720.25 826.976 z" fill="rgb(125,132,148)" transform="translate(0,0)"></path>
<path d="M 964.93 101.911 C 966.744 103.289 974.861 120.707 976.297 123.875 C 999.511 175.096 1035.96 216.572 1066.15 263.203 C 1098 311.674 1128.88 360.772 1158.78 410.468 C 1174.24 436.114 1189.25 462.21 1204.13 488.193 C 1207.41 493.927 1216.49 502.992 1215.34 508.707 C 1212.42 510.746 1209.63 510.045 1205.91 509.849 C 1205 509.573 1204.1 509.286 1203.2 508.987 C 1179.78 501.14 1158.83 485.467 1140.38 469.45 C 1085.51 421.819 1048.24 364.923 1016.05 300.263 C 1002.43 272.886 942.372 134.666 952.492 109.326 C 953.943 105.691 961.516 103.349 964.93 101.911 z" fill="rgb(255,255,255)" transform="translate(0,0)"></path>
<path d="M 834.809 150.387 C 863.552 146.742 886.477 153.69 910.483 168.726 C 892.147 165.936 878.753 165.168 861.604 173.184 C 787.29 207.919 764.432 298.259 762.756 373.538 C 762.04 405.665 762.22 434.216 750.516 464.003 C 740.74 467.872 732.431 472.583 723.221 477.562 C 722.536 451.843 715.804 416.036 708.425 391.452 C 712.927 376.389 715.712 357.293 720.015 341.543 C 730.94 301.555 748.656 266.016 772.887 232.576 C 795.757 201.204 814.745 186.509 848.538 169.74 C 843.138 169.202 818.956 182.145 814.035 185.789 C 751.845 231.847 720.122 308.436 706.212 381.815 C 696.279 350.475 689.975 327.457 677.054 296.603 C 684.464 270.231 699.664 242.874 716.358 221.215 C 746.779 181.744 785.014 156.921 834.809 150.387 z" fill="rgb(255,255,255)" transform="translate(0,0)"></path>
<path d="M 298.88 416.044 C 276.532 405.747 255.559 399.143 232.459 390.945 C 229.425 389.868 230.359 390.581 229.126 387.763 C 231.828 358.982 271.379 365.236 293.084 364.503 C 364.264 362.099 425.76 373.012 488.332 407.981 L 497.041 438.216 C 488.54 434.15 465.875 423.532 457.761 430.518 C 455.8 434.325 455.886 440.431 458.597 443.804 C 470.634 458.777 487.877 471.222 503.991 481.235 C 506.111 486.07 512.909 505.081 516.431 506.726 C 518.034 500.282 514.271 492.612 511.901 486.352 C 519.87 490.589 527.883 494.743 535.939 498.813 C 546.09 521.444 558.195 545.476 571.918 566.107 C 573.541 568.547 580.646 578.253 580.327 580.17 C 568.722 566.755 555.83 554.666 543.286 542.101 C 535.163 533.965 517.983 510.214 505.747 514.803 L 504.9 517.371 C 508.519 538.866 568.134 591.312 586.256 608.876 C 595.726 617.97 604.801 627.467 613.456 637.34 L 611.17 637.906 C 599.426 626.889 583.737 617.144 570.86 607.228 C 564.269 601.985 556.432 597.16 550.117 591.63 C 502.591 550.015 453.023 512.305 402.832 474.025 C 389.567 463.908 377.153 450.165 364.886 438.748 C 363.697 436.614 363.306 430.996 363.869 429.021 C 371.582 401.958 368.529 387.386 336.081 390.28 C 319.131 391.791 308.311 403.762 298.88 416.044 z" fill="rgb(255,255,255)" transform="translate(0,0)"></path>
<path d="M 975.723 89.9189 C 978.877 91.7453 982.001 93.6205 985.096 95.544 C 1003.83 107.262 1016.17 118.695 1032.5 132.622 C 1084.03 176.598 1123.15 224.088 1159.55 280.705 C 1189.5 327.277 1211.47 365.982 1223.74 421.295 C 1227.25 437.099 1236.17 487.517 1227.69 501.124 C 1195.54 432.073 1160.17 376.194 1114.79 315.002 C 1066.92 250.468 1000.51 172.622 970.516 98.5984 L 975.723 89.9189 z" fill="rgb(255,255,255)" transform="translate(0,0)"></path>
<path d="M 1885.24 1063.93 L 1886.29 1064.36 C 1883.85 1069.25 1853.12 1103.92 1847.08 1111.02 C 1837.88 1121.86 1829.52 1133.39 1822.09 1145.51 C 1722.87 1304.91 1734.45 1520.02 1775.32 1695.38 C 1770.28 1687.18 1765.71 1678.63 1761.08 1670.19 C 1758.13 1664.65 1755.6 1658.56 1753.27 1652.74 C 1735.62 1608.79 1719.66 1561 1711.39 1514.3 C 1687.6 1379.9 1717.36 1234.73 1804.88 1128.23 C 1822.6 1106.66 1860.98 1077.64 1885.24 1063.93 z" fill="rgb(125,132,148)" transform="translate(0,0)"></path>
<path d="M 1572.37 1769.41 C 1623.67 1766.38 1675.11 1772.62 1724.2 1787.84 C 1733.58 1790.79 1747.33 1795.15 1755.52 1799.97 C 1617.05 1765.11 1460.03 1833.61 1329.67 1870.49 C 1309.55 1876.19 1287.91 1879.99 1267.35 1883.7 C 1200.33 1895.4 1148.56 1894.81 1082.53 1880.28 C 1161.36 1877.67 1211.87 1875.43 1288.42 1851.06 C 1384.92 1820.33 1470.31 1776.43 1572.37 1769.41 z" fill="rgb(125,132,148)" transform="translate(0,0)"></path>
<path d="M 1228.29 514.803 L 1229.33 515.104 C 1233.58 519.204 1254.16 557.353 1257.99 564.393 C 1325.41 688.117 1370.99 817.846 1412.94 951.82 L 1448.63 1068.71 C 1469.84 1134.99 1492.58 1200.78 1516.83 1266.02 C 1537.34 1320.21 1562.28 1369.46 1590.4 1419.92 C 1667.88 1556.05 1753.98 1687.09 1848.17 1812.24 C 1871.1 1842.58 1894.35 1872.68 1917.93 1902.53 C 1925.49 1911.97 1955.15 1945.5 1957.51 1954.69 L 1956.83 1955.73 L 1954.88 1954.4 C 1950.53 1949.86 1946.16 1945.02 1941.71 1940.62 C 1912.26 1911.48 1888.01 1878.92 1862.66 1846.19 C 1835.1 1811.08 1808.39 1775.32 1782.56 1738.92 C 1761.48 1708.3 1740.75 1677.45 1720.36 1646.38 C 1704.44 1622.65 1686.21 1598.8 1671.21 1574.62 C 1623.42 1497.56 1575.19 1418.41 1537.25 1335.97 C 1497.89 1250.42 1469.37 1159.51 1439.43 1070.38 C 1432.45 1049.61 1427.48 1028.22 1420.87 1007.34 C 1406.34 963.727 1393.75 919.195 1379.61 875.531 C 1353.44 794.777 1321.98 715.833 1285.45 639.208 C 1275.34 618.003 1265.17 595.837 1253.97 575.278 C 1243.67 556.375 1231.3 537.748 1219.78 519.492 L 1228.29 514.803 z" fill="rgb(255,255,255)" transform="translate(0,0)"></path>
<path d="M 965.223 1377.74 C 1002.22 1312.1 1030.97 1244.8 1102.58 1210.4 C 1163.25 1181.26 1222.69 1190.84 1283.45 1211.47 L 1281.52 1213.56 C 1250.51 1200.67 1192.2 1201.24 1159.6 1209.64 C 1116.09 1220.19 1077.83 1245.02 1046.96 1276.97 C 1043.23 1280.83 1029.3 1293.78 1030.63 1298.38 L 1032.58 1299.1 C 1034.81 1298.34 1071.04 1264.68 1078.21 1258.61 C 1127.56 1216.85 1205.17 1196.8 1269.05 1219.54 C 1200.09 1221.13 1155.01 1239.62 1098.13 1276.65 C 1079.85 1288.33 1062.19 1300.94 1045.22 1314.45 C 1020.67 1334.16 990.756 1360.39 965.223 1377.74 z" fill="rgb(125,132,148)" transform="translate(0,0)"></path>
<path d="M 220.199 395.011 C 234.268 394.397 282.036 414.288 294.992 421.558 C 281.607 463.927 306.796 510.61 350.45 476.411 C 367.369 487.682 384.316 500.077 401.102 511.668 C 411.732 519.009 425.283 527.293 434.941 535.121 C 429.079 532.864 423.18 530.708 417.244 528.655 C 397.808 522.658 364.039 517.798 343.514 519.804 C 335.904 515.173 325.446 509.782 316.939 507.176 C 304.921 503.495 297.359 503.255 295.545 517.027 L 295.365 518.478 C 293.091 520.751 276.379 524.842 272.435 525.962 C 248.614 503.251 226.436 478.47 213.009 448.101 C 204.353 428.523 195.982 405.96 220.199 395.011 z" fill="rgb(255,255,255)" transform="translate(0,0)"></path>
<path d="M 720.808 799.105 C 758.11 795.433 805.87 803.577 840.343 817.392 C 845.876 819.609 857.732 822.885 857.817 829.344 C 850.384 838.662 788.031 842.109 771.766 844.255 C 727.717 851.251 704.665 857.963 665.849 880.597 C 672.18 859.662 678.395 835.944 681.532 814.309 C 695.232 809.348 707.417 804.794 720.808 799.105 z" fill="rgb(125,132,148)" transform="translate(0,0)"></path>
<path d="M 934.537 107.848 C 938.402 107.735 946.591 106.336 946.75 111.284 C 947.546 135.952 953.586 157.17 961.156 180.514 C 982.073 245.876 1010.61 308.548 1046.19 367.234 C 1079.96 422.169 1138.66 490.618 1202.04 513.519 C 1204.7 514.48 1205.29 514.078 1208.24 515.666 C 1194.73 517.368 1177.33 508.596 1165.56 502.361 C 1119.67 477.968 1079.9 443.497 1049.24 401.535 C 995.3 328.101 960.627 253.549 942.676 164.515 C 939.528 148.9 932.203 123.173 934.537 107.848 z" fill="rgb(255,255,255)" transform="translate(0,0)"></path>
<path d="M 1038.41 583.715 C 1049.27 580.2 1073.63 584.832 1084.87 588.13 L 1083.57 591.868 L 1084.47 592.798 C 1084.59 593.886 1084.99 595.287 1084.36 596.155 C 1073.38 611.311 1045.99 600.873 1031.94 600.787 C 970.656 600.32 921.23 637.66 875.088 672.45 C 819.548 714.325 760.962 775.974 696.028 800.704 C 727.095 777.045 756.412 748.478 783.376 720.415 C 846.477 654.744 923.41 608.357 1013.81 592.493 C 1019.2 591.548 1026.64 590.915 1031.72 589.544 L 1033 589.185 L 1032.77 588.646 C 1034.88 585.36 1033.59 589.639 1039.3 587.006 L 1038.41 583.715 z" fill="rgb(125,132,148)" transform="translate(0,0)"></path>
<path d="M 1038.41 583.715 C 1049.27 580.2 1073.63 584.832 1084.87 588.13 L 1083.57 591.868 C 1080.95 592.054 1065.5 589.711 1061.11 589.385 C 1050.76 588.617 1043.32 588.879 1033 589.185 L 1032.77 588.646 C 1034.88 585.36 1033.59 589.639 1039.3 587.006 L 1038.41 583.715 z" fill="rgb(15,27,66)" transform="translate(0,0)"></path>
<path d="M 1585.32 705.413 C 1631.4 702.164 1678.07 720.817 1717.44 743.107 C 1706.59 740.803 1694.48 737.525 1683.77 734.465 C 1598.11 710.006 1514.98 734.649 1458.37 805.529 C 1427.85 846.753 1423.13 866.036 1415.8 913.781 C 1415.49 910.998 1415.22 908.211 1414.99 905.422 C 1410.96 856.825 1434.77 796.459 1465.88 759.341 C 1496.21 723.146 1539.29 709.029 1585.32 705.413 z" fill="rgb(125,132,148)" transform="translate(0,0)"></path>
<path d="M 1247.77 1228.42 C 1269.96 1226.99 1286.45 1230.01 1307.66 1234.57 C 1203.57 1236.61 1110.99 1317.19 1019.36 1360.96 C 1004.33 1368.24 990.223 1374.85 974.736 1381.06 C 984.217 1371.44 1012.95 1349.58 1025.17 1339.79 C 1092.53 1285.81 1158.41 1234.44 1247.77 1228.42 z" fill="rgb(125,132,148)" transform="translate(0,0)"></path>
<path d="M 886.743 173.361 C 905.071 171.986 918.206 177.343 932.546 187.9 C 859.577 178.815 806.218 247.35 799.122 313.265 C 794.79 353.503 792.731 392.628 778.837 431.023 C 776.091 437.646 768.819 459.744 760.543 459.765 L 760.13 458.487 C 769.909 427.437 768.375 409.273 769.244 377.523 C 770.731 323.141 780.917 265.338 814.929 221.349 C 833.73 197.034 855.163 177.737 886.743 173.361 z" fill="rgb(125,132,148)" transform="translate(0,0)"></path>
<path d="M 624.216 95.5386 C 627.042 96.6654 631.742 100.448 634.432 102.412 C 629.568 110.071 622.973 121.109 621.502 130.214 C 609.408 205.065 665.161 270.79 685.951 339.188 C 699.714 384.462 714.541 430.571 716.623 478.1 C 716.798 482.03 713.205 483.78 710.55 485.729 C 708.427 487.196 709.345 486.936 706.956 487.263 C 703.593 482.753 702.142 462.266 700.759 455.101 C 684.222 369.38 644.609 292.878 617.728 210.656 C 606.423 176.074 593.118 124.206 624.216 95.5386 z" fill="rgb(125,132,148)" transform="translate(0,0)"></path>
<path d="M 935.625 172.321 L 937.568 168.945 C 950.821 226.849 960.429 263.567 987.572 317.265 C 1024.71 390.747 1068.83 455.641 1140.73 499.528 C 1153.02 507.098 1167.06 515.046 1180.65 520.263 C 1175.34 519.937 1168.76 519.608 1163.63 518.519 C 1024.69 489.039 944.798 295.314 935.625 172.321 z" fill="rgb(125,132,148)" transform="translate(0,0)"></path>
<path d="M 1603.19 732.408 C 1617.57 730.661 1643.18 734.604 1658.88 735.888 L 1657.16 736.082 C 1584.69 744.768 1491.43 809.833 1446.51 866.754 C 1437.21 879.961 1433.76 888.678 1427.69 903.298 C 1427.54 895.995 1427.33 887.97 1429.11 880.887 C 1435.26 856.348 1454.95 823.193 1470.41 804.046 C 1503.39 763.466 1551.17 737.688 1603.19 732.408 z" fill="rgb(125,132,148)" transform="translate(0,0)"></path>
<path d="M 353.77 526.798 C 382.32 527.62 400.164 531.206 427.027 540.252 C 456.95 550.327 470.108 561.63 494.713 580.46 C 510.963 592.758 526.889 605.479 542.474 618.61 C 553.208 627.651 564.704 637.971 575.802 646.289 C 570.34 644.682 554.594 632.317 545.511 628.526 C 523.273 619.739 501.135 610.91 478.984 601.898 C 448.464 589.481 414.353 570.204 383.344 560.355 C 377.074 556.348 377.096 548.01 371.574 542.029 C 366.467 536.497 359.789 531.277 353.77 526.798 z" fill="rgb(255,255,255)" transform="translate(0,0)"></path>
<path d="M 377.862 638.691 C 424.356 623.933 480.627 647.882 525.009 662.666 C 535.321 666.101 547.15 673.076 557.832 675.557 C 563.4 675.745 580.359 680.692 583.234 685.29 L 581.26 687.115 C 584.594 691.224 586.406 686.419 590.274 692.018 C 571.594 686.466 546.023 681.707 526.58 677.531 L 524.414 679.239 C 506.705 677.448 483.954 669.475 464.866 667.349 C 453.83 666.12 413.296 663.372 406.617 660.617 C 410.826 659.56 413.124 660.13 417.535 660.572 L 419.925 657.776 C 414.273 657.171 408.605 656.724 402.928 656.436 C 393.52 648.222 388.467 645.178 377.862 638.691 z" fill="rgb(255,255,255)" transform="translate(0,0)"></path>
<path d="M 419.925 657.776 C 458.212 658.647 483.309 662.112 521.022 671.105 C 535.632 674.589 559.107 681.006 573.073 682.723 C 568.036 680.243 562.955 677.854 557.832 675.557 C 563.4 675.745 580.359 680.692 583.234 685.29 L 581.26 687.115 C 584.594 691.224 586.406 686.419 590.274 692.018 C 571.594 686.466 546.023 681.707 526.58 677.531 L 524.414 679.239 C 506.705 677.448 483.954 669.475 464.866 667.349 C 453.83 666.12 413.296 663.372 406.617 660.617 C 410.826 659.56 413.124 660.13 417.535 660.572 L 419.925 657.776 z" fill="url(#Gradient5)" transform="translate(0,0)"></path>
<path d="M 524.414 679.239 C 506.705 677.448 483.954 669.475 464.866 667.349 C 453.83 666.12 413.296 663.372 406.617 660.617 C 410.826 659.56 413.124 660.13 417.535 660.572 C 430.563 661.759 443.6 662.901 456.599 664.372 C 480.219 667.046 503.293 672.989 526.58 677.531 L 524.414 679.239 z" fill="rgb(161,168,183)" transform="translate(0,0)"></path>
<path d="M 984.492 74.2778 C 986.603 75.2266 988.53 76.4758 990.486 77.68 C 1072.69 128.277 1140.75 209.798 1182.74 296.088 C 1188.3 307.518 1202.7 334.714 1205.54 346.461 L 1204.68 345.678 C 1146.79 238.375 1081.5 153.299 978.658 86.1618 C 980.338 82.2454 982.55 78.1099 984.492 74.2778 z" fill="rgb(255,255,255)" transform="translate(0,0)"></path>
<path d="M 1094.13 153.82 C 1112.93 173.265 1133.37 191.761 1150.39 212.92 C 1195.19 268.632 1227.01 335.082 1242.12 404.946 C 1248.67 435.234 1248.13 463.535 1241.78 493.727 C 1239.83 476.662 1238.94 459.708 1236.43 442.654 C 1221.43 340.654 1171.59 246.813 1105.7 168.592 C 1102.04 164.243 1097.16 159.767 1093.04 155.808 L 1094.13 153.82 z" fill="url(#Gradient4)" transform="translate(0,0)"></path>
<path d="M 348.822 402.156 C 368.931 400.005 363.725 412.186 360.357 427.156 C 358.319 436.211 360.268 443.259 358.857 450.553 C 354.624 472.432 337.162 484.373 315.226 481.506 L 305.591 476.784 C 302.049 471.998 300.677 468.045 299.149 462.41 C 302.11 453.504 305.775 444.847 310.109 436.522 C 319.754 418.053 328.654 408.595 348.822 402.156 z" fill="rgb(125,132,148)" transform="translate(0,0)"></path>
<path d="M 784.012 753.833 C 802.61 761.326 863.853 796.601 864.562 818.555 L 863.162 819.482 C 858.569 818.299 838.021 808.574 831.079 805.897 C 801.581 795.239 763.321 791.47 731.89 791.769 C 750.22 780.493 767.647 767.81 784.012 753.833 z" fill="rgb(125,132,148)" transform="translate(0,0)"></path>
<path d="M 1203.87 1047.08 C 1260.28 1107.88 1310.7 1172.87 1373.12 1228.65 C 1396.89 1249.89 1421.36 1269.53 1446.7 1288.84 C 1463.99 1302.02 1496.88 1322.61 1511.46 1336.64 C 1496.14 1329.95 1469.58 1311.35 1454.64 1301.34 C 1420.41 1278.39 1385.28 1250.44 1354.74 1222.73 C 1342.73 1211.83 1330.27 1196.89 1318.88 1185.14 C 1277.42 1142.42 1242.1 1095.48 1203.6 1050.49 L 1203.87 1047.08 z" fill="rgb(255,255,255)" transform="translate(0,0)"></path>
<path d="M 672.013 816.555 C 677.535 828.67 638.029 954.219 631.347 977.366 C 627.521 990.831 623.974 1004.37 620.709 1017.99 C 615.006 1042.02 609.85 1075.7 606.612 1100.27 C 605.225 1090.61 605.464 1077.08 605.671 1067.13 C 607.09 998.764 633.582 935.725 655.47 872.095 C 661.646 854.142 666.828 834.935 672.013 816.555 z" fill="url(#Gradient3)" transform="translate(0,0)"></path>
<path d="M 370.944 995.367 L 372.377 996.373 C 364.358 1003.08 353.56 1010.02 344.945 1016.3 C 311.403 1040.76 281.21 1068.69 251.602 1097.72 C 227.432 1121.38 203.218 1147.09 192.549 1179.92 C 189.921 1188.01 181.207 1235.51 164.513 1216.01 C 164.72 1213.51 164.72 1213.76 167.411 1211.37 C 175.313 1204.38 178.245 1187.31 183.305 1175.76 C 187.451 1166.44 192.432 1157.51 198.189 1149.08 C 228.681 1104.5 270.2 1068.02 312.831 1035.32 C 331.137 1021.28 352.134 1009.14 370.944 995.367 z" fill="rgb(125,132,148)" transform="translate(0,0)"></path>
<path d="M 464.268 435.108 C 486.117 438.045 551.604 469.2 561.638 487.955 L 559.824 489.906 C 553.521 491.727 543.213 493.768 537.01 491.459 C 520.215 485.208 467.947 452.963 464.268 435.108 z" fill="rgb(83,100,129)" transform="translate(0,0)"></path>
<path d="M 296.468 611.95 C 321.306 610.989 373.2 643.045 393.564 659.214 C 397.027 661.964 399.949 665.015 400.203 669.56 C 377.294 678.211 309.875 629.839 296.468 611.95 z" fill="rgb(83,100,129)" transform="translate(0,0)"></path>
<path d="M 811.591 732.59 C 842.2 744.437 863.328 772.005 868.918 803.982 L 857.707 792.353 C 840.196 775.433 814.01 756.549 790.504 749.403 C 797.604 743.889 804.634 738.284 811.591 732.59 z" fill="rgb(125,132,148)" transform="translate(0,0)"></path>
<path d="M 300.85 511.909 C 320.676 511.109 362.187 537.193 372.275 555.559 C 374.458 559.534 371.404 565.357 369.584 569.184 C 357.154 573.142 319.202 531.508 307.343 523.826 C 303.133 521.1 300.09 517.078 300.85 511.909 z" fill="rgb(83,100,129)" transform="translate(0,0)"></path>
<path d="M 404.734 506.597 C 403.031 503.873 402.004 503.26 401.887 500.502 L 402.191 501.364 L 402.726 498.077 C 409.66 497.582 423.437 512.106 433.732 516.887 C 436.765 518.789 441.684 523.164 444.706 525.577 C 491.875 563.462 539.042 601.342 585.269 640.376 C 608.758 660.209 637.484 679.199 659.428 699.981 C 644.709 692.31 631.566 681.698 618.395 671.611 C 585.602 646.496 555.229 619.222 522.763 593.366 C 503.824 578.043 484.481 563.228 464.754 548.934 C 445.117 534.826 423.939 520.822 404.734 506.597 z" fill="url(#Gradient2)" transform="translate(0,0)"></path>
<path d="M 363.958 446.809 C 365.843 448.156 375.737 458.746 378.318 461.33 C 386.201 469.169 394.534 476.541 403.276 483.409 C 432.657 506.883 463.915 528.976 493.618 552.057 C 506.362 561.961 518.803 573.773 531.171 584.255 C 551.634 601.254 572.291 618.016 593.14 634.54 C 606.219 644.727 669.335 689.756 674.635 701.33 C 665.223 699.569 512.521 572.894 492.25 556.927 C 461.549 533.096 431.138 508.894 401.023 484.326 C 389.313 474.85 376.62 464.823 365.213 454.866 C 363.374 453.261 363.88 449.419 363.958 446.809 z" fill="rgb(255,255,255)" transform="translate(0,0)"></path>
<path d="M 397.341 626.296 C 448.139 617.883 509.027 647.36 556.927 663.243 C 570.023 667.585 583.557 673.744 597.158 676.301 C 601.678 675.654 620.833 680.589 624.647 684.573 L 623.869 685.322 C 621.569 685.005 619.645 684.664 617.309 684.696 L 619.287 688.506 C 636.765 696.123 655.297 702.231 673.524 707.724 C 676.058 708.488 676.101 709.715 676.971 711.855 L 676.163 713.445 C 667.479 713.921 642.295 701.576 632.403 698.169 C 561.723 673.82 474.009 623.696 397.977 628.381 L 397.341 626.296 z" fill="rgb(255,255,255)" transform="translate(0,0)"></path>
<path d="M 597.158 676.301 C 601.678 675.654 620.833 680.589 624.647 684.573 L 623.869 685.322 C 621.569 685.005 619.645 684.664 617.309 684.696 L 619.287 688.506 C 614.767 686.299 599.582 679.135 597.158 676.301 z" fill="rgb(60,72,106)" transform="translate(0,0)"></path>
<path d="M 1101.62 307.763 C 1102.1 308.136 1102.59 308.51 1103.07 308.883 C 1147.96 366.537 1186.32 428.655 1219.68 493.627 C 1222.41 498.936 1224.96 501.109 1224.77 506.491 L 1222.34 506.842 C 1219.05 505.55 1205.11 480.266 1202.07 475.051 C 1180.32 436.912 1158.02 399.09 1135.18 361.598 C 1125.42 345.569 1109.83 323.552 1101.62 307.763 z" fill="rgb(125,132,148)" transform="translate(0,0)"></path>
<path d="M 95.7162 761.1 C 96.7356 761.053 97.7556 761.019 98.7758 760.997 C 112.395 760.753 142.98 778.315 152.111 787.158 L 152.034 788.103 L 145.761 787.482 C 124.396 785.695 103.073 781.241 85.0165 769.512 C 89.2865 765.445 90.8351 764.382 95.7162 761.1 z" fill="rgb(125,132,148)" transform="translate(0,0)"></path>
<path d="M 543.116 501.916 C 546.746 505.253 569.777 545.502 575.004 553.545 C 588.066 573.645 601.106 595.361 615.248 614.99 C 624.329 627.47 633.617 639.798 643.109 651.969 C 647.84 657.933 672.761 686.233 674.172 689.982 C 665.774 685.581 642.695 659.317 636.777 651.492 C 607.933 613.353 582.166 572.324 558.545 530.761 C 553.571 522.009 546.686 511.148 543.116 501.916 z" fill="rgb(255,255,255)" transform="translate(0,0)"></path>
<path d="M 360.504 460.387 C 376.104 471.69 391.518 483.247 406.739 495.055 C 413.506 500.243 428.066 511.082 433.732 516.887 C 423.437 512.106 409.66 497.582 402.726 498.077 L 402.191 501.364 L 401.887 500.502 C 402.004 503.26 403.031 503.873 404.734 506.597 C 392.787 498.736 364.676 479.512 354.787 470.616 L 360.504 460.387 z" fill="rgb(161,168,183)" transform="translate(0,0)"></path>
<path d="M 378.905 565.042 L 535.678 632.81 C 553.106 640.376 569.516 651.676 587.399 656.42 C 593.984 660.698 604.876 667.734 610.259 673.188 C 603.965 671.059 599.686 665.558 593.659 662.639 C 559.69 646.189 526.247 631.375 491.027 617.798 C 460.899 606.185 430.269 591.771 401.004 578.082 C 395.883 575.686 382.187 570.497 378.446 567.356 L 378.905 565.042 z" fill="rgb(255,255,255)" transform="translate(0,0)"></path>
<path d="M 526.58 677.531 C 546.023 681.707 571.594 686.466 590.274 692.018 C 624.397 701.736 638.238 705.484 671.018 720.353 C 651.994 719.164 620.152 705.547 600.551 699.433 C 575.448 691.702 550.049 684.966 524.414 679.239 L 526.58 677.531 z" fill="url(#Gradient1)" transform="translate(0,0)"></path>
<path d="M 339.853 396.628 L 340.636 398.549 C 314.968 409.638 304.164 432.578 297.502 458.176 C 295.5 439.748 296.822 429.391 308.707 413.903 C 316.901 403.225 326.559 398.029 339.853 396.628 z" fill="rgb(255,255,255)" transform="translate(0,0)"></path>
<path d="M 512.733 521.711 C 518.571 523.886 610.951 620.221 613.138 626.068 C 604.059 618.057 591.403 604.55 582.48 595.436 C 561.669 574.18 529.128 545.59 512.733 521.711 z" fill="rgb(255,255,255)" transform="translate(0,0)"></path>
<path d="M 963.04 90.8821 C 964.998 92.6889 964.458 93.386 964.12 95.617 C 961.126 98.9227 956.167 101.176 952.318 97.9838 C 952.186 93.6597 953.207 92.4334 956.618 90.5421 C 959.564 91.0558 960.033 91.3163 963.04 90.8821 z" fill="rgb(255,255,255)" transform="translate(0,0)"></path>
<path d="M 1187.04 1028.71 C 1189.92 1031.68 1202.59 1044.47 1203.87 1047.08 L 1203.6 1050.49 C 1199.13 1046.01 1191.02 1035.54 1186.69 1030.28 L 1187.04 1028.71 z" fill="rgb(125,132,148)" transform="translate(0,0)"></path>
<path d="M 956.618 90.5421 C 960.871 87.0908 961.838 85.9757 966.986 84.0447 L 968.218 84.5793 C 967.086 87.9184 965.737 88.611 963.04 90.8821 C 960.033 91.3163 959.564 91.0558 956.618 90.5421 z" fill="rgb(255,255,255)" transform="translate(0,0)"></path>
<path d="M 370.944 995.367 C 374.626 992.191 379.638 986.988 384.177 986.664 C 382.803 990.522 375.962 994.912 372.377 996.373 L 370.944 995.367 z" fill="rgb(60,72,106)" transform="translate(0,0)"></path>
<path d="M 613.456 637.34 C 618.079 641.085 622.435 646.971 626.241 651.686 C 621.331 647.707 615.224 642.796 611.17 637.906 L 613.456 637.34 z" fill="rgb(83,100,129)" transform="translate(0,0)"></path>
<path d="M 339.853 396.628 C 343.077 395.87 348.16 395.592 351.387 395.882 L 352.647 397.358 L 352.752 396.112 L 353.423 396.907 C 349.253 398.477 345.139 398.323 340.636 398.549 L 339.853 396.628 z" fill="rgb(125,132,148)" transform="translate(0,0)"></path>
<path d="M 397.977 628.381 C 393.772 629.266 391.104 629.917 386.847 630.18 L 386.073 629.32 C 389.923 626.955 392.876 626.931 397.341 626.296 L 397.977 628.381 z" fill="rgb(161,168,183)" transform="translate(0,0)"></path>
<path d="M 935.625 172.321 C 934.914 168.318 934.583 162.839 934.208 158.682 L 935.637 158.512 L 934.483 155.813 L 934.287 158.872 L 935.76 158.772 L 935.538 157.886 L 937.568 168.945 L 935.625 172.321 z" fill="rgb(83,100,129)" transform="translate(0,0)"></path>
<path d="M 1186.69 1030.28 C 1183.71 1027.74 1180.62 1025.62 1179.05 1022.1 L 1179.76 1021.3 C 1183.28 1023.27 1184.48 1025.44 1187.04 1028.71 L 1186.69 1030.28 z" fill="rgb(60,72,106)" transform="translate(0,0)"></path>
<path d="M 1283.45 1211.47 C 1288.44 1213.47 1294.09 1215.52 1298.75 1218.09 C 1292.29 1216.69 1287.82 1215.52 1281.52 1213.56 L 1283.45 1211.47 z" fill="rgb(83,100,129)" transform="translate(0,0)"></path>
<path d="M 1093.04 155.808 C 1090.76 153.891 1087.13 150.449 1086.37 147.578 C 1089.42 148.425 1091.8 151.444 1094.13 153.82 L 1093.04 155.808 z" fill="rgb(60,72,106)" transform="translate(0,0)"></path>
<metadata><recraft-signature>{"signed_by": "recraft", "signature_b64": "uZd+tfTH03Lum+KJELMtqwYCcvt8Fc9Mq/Y4Nm1jiPRyr7MmY7IuSC7KKPxqwbKBRZJaR4yksxlbEYJlM8OACQ==", "signing_algo": "Ed25519", "generation_timestamp": 1784242245, "identifier": "6a1c32e0-0bf7-4d89-9cce-72093acdbc67"}</recraft-signature></metadata></svg>