<svg xmlns="http://www.w3.org/2000/svg" height="1024" preserveAspectRatio="none" style="display: block;" version="1.1" viewBox="0 0 2048 2048" width="1024">
<path d="M 0 0 L 2048 0 L 2048 2048 L 0 2048 L 0 0 z" fill="none" transform="translate(0,0)"></path>
<path d="M 624.228 85.4641 C 642.335 85.4559 670.32 88.4412 688.954 89.881 C 729.165 92.8523 769.353 96.1336 809.514 99.7248 L 1114.59 124.357 C 1108.18 224.076 1096.92 330.643 1094.75 429.703 C 1103.45 441.872 1105.7 444.486 1110.73 458.026 C 1115.29 454.618 1121.39 449.748 1126.16 447.108 C 1139.88 446.968 1154.74 446.607 1168.4 447.477 C 1181.26 455.839 1186.94 462.477 1190.13 477.807 L 1190.41 479.223 C 1206.65 483.123 1222.97 487.956 1239.04 491.584 C 1254.29 485.829 1265.89 482.813 1280.78 475.572 L 1281.55 475.185 C 1289.3 480.669 1300.88 486.996 1306.92 492.97 C 1314.66 500.629 1321.54 510.931 1329.26 519.333 C 1331.75 518.781 1332.54 517.216 1334.19 515.17 C 1356.42 515.349 1367.48 511.337 1386.78 526.101 C 1391.64 529.822 1404.68 540.381 1410.11 534.02 C 1431 509.529 1442.47 520.183 1466.13 527.9 C 1474.17 521.155 1483.02 512.513 1494.44 513.255 C 1506.92 514.067 1524.13 531.157 1534.06 539.706 C 1552.87 527.504 1588.09 516.094 1610 508.809 C 1612.42 508.004 1621.03 508.611 1622.89 509.348 C 1648.94 519.719 1656.1 508.623 1679.25 502.481 C 1684.7 501.035 1702.43 505.573 1707.19 508.102 C 1720.64 513.577 1733.74 532.23 1743.69 537.769 C 1763.68 548.898 1777.5 549.545 1796.79 565.274 C 1807.8 562.671 1863.1 555.987 1872.79 558.116 C 1877.27 561.644 1876.98 597.999 1877.17 604.855 L 1879.18 671.524 C 1881.14 730.607 1885.11 792.846 1885.07 851.606 C 1914.75 877.312 1918.91 895.342 1925.33 932.348 C 1926.2 937.391 1938.66 950.138 1941.6 955.176 C 1952.2 973.957 1958.2 995.187 1959.56 1016.34 C 1961.91 1052.85 1953.74 1068.54 1940.64 1099.46 C 1956.03 1136 1956.23 1166.13 1940.99 1203.29 C 1936.9 1213.25 1932.06 1222.88 1926.5 1232.1 C 1930.8 1250.33 1934.84 1265.45 1939.86 1283.3 C 1909.62 1289.73 1878.87 1294.4 1848.56 1300.55 C 1829.9 1304.34 1812.46 1306.34 1794.62 1313.56 C 1773.54 1322.08 1778.82 1342.08 1766.39 1357.11 C 1758.92 1366 1747 1369.33 1738.31 1376.62 C 1728.7 1385.33 1719.1 1396.75 1709.81 1406.13 C 1695.87 1420.01 1680.53 1432.41 1664.03 1443.13 C 1623.61 1469.93 1581.24 1484.62 1541.5 1509.53 C 1484.02 1545.57 1442.55 1624.09 1441.32 1691.52 C 1440.99 1708.8 1443.42 1728.64 1447.38 1745.53 C 1451.92 1765.46 1458.75 1784.79 1467.73 1803.16 C 1481.13 1830.71 1498.71 1847.26 1495.46 1880.35 C 1492.53 1910.19 1480.03 1924.95 1452.19 1934.33 C 1420.96 1975.7 1362.11 1948.43 1330.61 1922.75 C 1316.85 1927.62 1305.96 1930.72 1291.08 1927.27 C 1268.68 1922.07 1248.01 1909.5 1230.46 1894.92 C 1199.87 1894.88 1170.54 1882.78 1148.81 1861.25 C 1148.1 1860.54 1147.4 1859.82 1146.71 1859.09 C 1125.64 1859.89 1093.1 1840.44 1084.18 1821.54 C 1081.01 1814.84 1079.8 1806.22 1077.9 1799.01 C 1073.73 1787.62 1067.18 1758.97 1062.36 1750.37 C 1054.31 1736.01 1041.76 1732.34 1038.02 1711.61 C 1036.16 1703.66 1036.66 1651.67 1037.57 1642.51 C 1021.62 1632.38 992.99 1600.61 989.115 1583.26 C 988.532 1580.59 988.007 1577.92 987.539 1575.24 C 965.677 1562.26 948.779 1547.62 944.925 1521.64 C 940.443 1491.42 920.541 1478.91 907.331 1453.55 C 894.634 1429.16 891.98 1399.16 876.374 1375.96 C 856.002 1347.19 834.556 1364.09 822.079 1321.55 C 804.96 1310.16 798.874 1307.63 778.55 1304.83 C 762.443 1302.61 746.682 1300.39 730.418 1298.69 C 718.857 1303.86 708.629 1306.79 695.788 1307.15 C 686.281 1319.84 687.402 1329.23 683.431 1344.09 C 676.791 1368.94 671.199 1394.5 661.446 1418.36 C 654.242 1415.12 648.201 1412.25 641.219 1408.58 C 630.519 1423.24 618.998 1443.11 610.421 1459.3 C 557.178 1428.78 502.157 1401.08 449.421 1369.89 C 443.804 1366.57 438.533 1350.46 430.376 1342.87 C 419.947 1340.29 411.922 1339.13 401.357 1337.6 C 394.643 1324.05 387.731 1310.6 380.623 1297.25 C 364.195 1265.88 359.5 1251.52 367.892 1214.86 C 359.887 1203.56 337.072 1154.7 332.622 1141.28 C 328.238 1140.39 323.561 1139.5 319.227 1138.39 C 295.4 1132.32 280.061 1108.05 271.007 1086.92 C 258.291 1080.65 245.556 1074.62 234.802 1065.17 C 221.482 1053.46 219.339 1035.91 212.028 1020.74 C 198.802 1015.47 191.314 1009.49 179.825 1003.82 C 152.84 990.497 149.201 991.5 151.923 958.499 C 133.706 953.56 121.912 951.132 112.074 932.904 C 104.755 919.344 103.365 913.38 104.479 898.215 C 101.029 892.219 95.8078 885.91 91.3749 880.517 C 93.7142 861.542 93.1337 839.163 96.2111 817.942 C 247.127 830.177 397.948 843.555 548.661 858.077 C 557.51 778.962 565.354 699.739 572.189 620.425 L 602.179 307.73 L 615.306 171.128 C 616.964 152.09 618.817 133.07 620.863 114.07 C 621.717 106.005 622.715 93.1496 624.228 85.4641 z" fill="rgb(19,33,71)" transform="translate(0,0)"></path>
<path d="M 1037.57 1642.51 C 1041.02 1652.14 1041.38 1702.26 1038.02 1711.61 C 1036.16 1703.66 1036.66 1651.67 1037.57 1642.51 z" fill="rgb(19,33,71)" transform="translate(0,0)"></path>
<path d="M 647.308 113.187 C 720.023 117.139 798.252 125.596 871.215 131.658 L 1002.34 142.343 C 1029.7 144.442 1058.49 146.036 1085.67 148.827 C 1080.73 246.292 1071.53 346.972 1064.87 444.493 C 1089.77 446.194 1088.8 460.55 1092.43 480.129 C 1109.59 480.097 1119.23 480.616 1134.28 472.228 C 1142.23 474.502 1157.37 473.989 1161.63 477.069 C 1165.82 483.382 1163.67 490.252 1162.69 498.111 C 1182.28 501.078 1220.78 513.108 1242.02 519.063 C 1253.82 514.235 1265.66 509.493 1277.53 504.836 C 1285.2 509.556 1288.98 513.38 1293.22 518.25 C 1300.15 526.21 1299.27 545.127 1311.07 539.248 C 1312.16 538.707 1324.84 548.061 1328.7 550.257 C 1333.47 548.305 1345.5 540.917 1349.61 541.107 C 1366.24 541.875 1395.57 563.278 1409.35 571.985 C 1418.27 563.632 1427.56 553.586 1435.82 544.526 C 1444.53 548.491 1453.13 554.284 1460.79 559.997 C 1472.85 553.294 1482.25 548.144 1494.7 542.215 C 1504.12 548.005 1518.84 561.614 1527.59 569.252 C 1549.24 558.681 1591.4 543.378 1615.69 536.837 C 1621.23 535.344 1644.42 541.277 1651.01 543.279 C 1661.45 537.91 1671.79 533.25 1682.27 527.706 C 1708.62 534.736 1710.22 548.107 1730.47 562.011 C 1734.58 564.835 1749.77 570.748 1755.65 573.367 C 1767.49 578.652 1779.03 584.602 1790.2 591.188 C 1807.8 589.875 1832.1 587.754 1849.3 585.205 C 1851.55 613.142 1852.18 648.849 1853.09 676.998 C 1854.42 718.782 1855.97 760.558 1857.76 802.325 C 1858.46 820.388 1857.94 850.59 1859.74 867.295 C 1877.67 880.695 1892.66 896.333 1896.04 918.718 C 1899.87 944.092 1905.7 947.593 1917.86 968.975 C 1933.7 996.813 1939.35 1036.04 1926.24 1066.07 C 1921.79 1076.24 1913.95 1090.22 1913.49 1101.79 C 1914.75 1115.68 1922.73 1124.4 1924.4 1141.03 C 1928.27 1179.48 1916.5 1198.32 1894.82 1226.92 C 1900.06 1238.88 1902.61 1248.98 1905.71 1261.7 C 1870.98 1269.03 1834.18 1274.66 1800.28 1283.46 C 1782.09 1288.1 1757.53 1300.9 1752.8 1320.58 C 1746.47 1346.92 1734.36 1342.37 1720.47 1355.61 C 1704.69 1370.65 1691.22 1387.08 1674.33 1402.17 C 1616.06 1454.26 1533.94 1464.31 1481.4 1524.25 C 1431.15 1579.36 1404.91 1650.45 1415.27 1725.48 C 1419.75 1757.92 1433.76 1790.81 1443.86 1821.78 C 1447.66 1835.98 1464.16 1846.86 1466.64 1861.17 C 1472.01 1892.08 1465.79 1901.53 1437.44 1908.67 C 1428.46 1919.2 1426.9 1921.96 1414.06 1926.36 C 1385.13 1929.72 1358.34 1913.42 1341.78 1890.58 C 1323.81 1896.15 1306.7 1904.02 1288.46 1897.85 C 1270.8 1891.87 1252.22 1880.27 1243.34 1863.5 C 1222.75 1867.1 1207.42 1867.51 1188.14 1857.35 C 1178.24 1852.13 1169.48 1843.65 1166.2 1832.69 C 1125.27 1827.55 1106.35 1825.92 1101.73 1780.58 C 1101.43 1777.55 1090.35 1741.29 1088.21 1738.14 C 1080.78 1727.22 1071.4 1721.93 1063.95 1707.33 C 1065.81 1693.73 1064.41 1678.05 1065.11 1663.62 C 1065.51 1655.39 1067.84 1640.21 1066.97 1632.5 C 1066.61 1629.29 1054.19 1623.39 1051.23 1621.12 C 1037.04 1610.22 1021.58 1589.08 1013.66 1572.99 C 1012.13 1569.89 1009.28 1554.93 1008.56 1551.38 C 985.92 1541.69 970.898 1535.95 968.915 1507.49 C 967.117 1481.7 945.876 1467.94 934.511 1445.25 C 916.765 1409.82 913.329 1359.37 874.97 1338.52 C 853.093 1326.62 850.414 1323.89 842.416 1300.07 C 828.501 1293.72 818.967 1289.9 806.483 1280.92 C 791.082 1283.29 775.127 1278.16 759.448 1276.2 C 746.853 1274.62 733.207 1272.93 720.78 1270.68 C 708.666 1282.51 696.771 1277.84 681.349 1281.49 C 654.545 1313.44 656.959 1341.18 646.19 1380.46 C 640.452 1377.19 637.366 1375.49 631.224 1372.92 C 620.53 1389.07 610.944 1406.34 599.949 1422.66 C 588.898 1414.65 574.846 1409.23 562.762 1402.43 C 554.636 1397.85 545.162 1389.87 536.915 1386.11 C 513.762 1375.57 488.702 1363.45 467.771 1349.02 C 462.881 1345.65 457.939 1335.46 454.464 1330.41 C 448.104 1321.17 431.412 1314.98 420.673 1313 C 393.31 1259.16 384.572 1267.08 397.861 1205.33 C 387.056 1191.69 375.24 1182.32 374.766 1164.08 C 366.353 1153.15 357.177 1130.44 350.532 1116.81 C 343.866 1115.91 335.292 1115.26 329.086 1113.04 C 307.113 1105.16 298.15 1082.41 288.874 1062.91 C 275.876 1056.78 257.211 1054.28 249.161 1040.67 C 242.785 1029.9 240.222 1016.03 236.212 1004.03 C 224.911 994.821 217.829 994.5 206.525 988.2 C 195.871 982.262 192.543 978.742 180.172 973.511 C 178.294 965.091 178.06 955.41 177.671 946.74 C 174.888 942.243 173.104 939.824 169.803 935.677 C 161.712 932.561 150.984 929.693 142.512 927.182 C 126.519 911.197 138.37 909.402 131.348 891.912 C 127.852 883.203 126.694 878.213 119.677 872.165 L 120.158 848.327 C 159.308 849.423 208.996 854.91 248.541 858.454 L 459.655 876.456 C 496.12 879.752 536.48 885.214 572.577 887.313 C 574.566 850.994 580.439 806.438 584.329 769.54 L 600.928 597.94 C 611.73 478.74 623.17 359.599 635.248 240.521 C 639.478 198.808 642.112 154.264 647.308 113.187 z" fill="rgb(255,255,255)" transform="translate(0,0)"></path>
<path d="M 666.775 136.804 C 696.245 137.87 737.838 143.064 768.708 145.399 L 1061.55 168.253 C 1060.46 202.095 1057.18 238.482 1054.67 272.38 L 1040.05 471.844 C 1051.47 469.604 1057.19 468.95 1068.78 469.006 C 1070.18 485.127 1068.94 493.385 1083.28 502.948 C 1095.6 503.665 1131.22 502.414 1141.02 496.292 C 1141.8 497.482 1142.75 500.876 1142.93 502.175 C 1144.13 510.656 1149.88 513.494 1156.99 519.212 C 1185.86 523.834 1213.4 534.768 1242.21 539.164 C 1251.17 540.531 1269.15 528.256 1275.83 532.263 C 1285.96 538.351 1279.83 560.271 1280.22 569.772 C 1280.35 573.103 1282.66 579.905 1283.63 582.885 C 1290.54 569.592 1291.26 567.656 1304.06 560.554 C 1310.31 564.054 1320.63 572.089 1327.18 576.618 C 1334.46 573.27 1343.8 566.113 1351.21 561.463 C 1359.9 565.868 1386.37 580.222 1389.86 588.644 C 1390.69 590.669 1398.16 592.454 1401.07 593.561 C 1409.51 596.774 1412.27 599.652 1418.4 605.706 C 1426.61 589.765 1425.8 582.637 1441.27 572.667 C 1448.61 578.283 1453.13 580.457 1461.71 583.374 C 1471.02 578.569 1481.02 571.459 1490.99 566.131 C 1505.22 575.086 1514.52 592.662 1525.07 600.083 C 1528.44 600.486 1538.86 587.484 1543.8 585.376 C 1558.4 579.148 1613.27 559.692 1626.36 560.202 C 1636.38 560.593 1646.98 568.245 1656.44 566.472 C 1661.68 565.491 1663.78 560.766 1666.43 556.669 C 1669.55 555.631 1675.41 553.672 1678.61 553.208 C 1693.19 551.093 1704.94 573.597 1716.83 579.738 C 1725.3 584.109 1734.97 588.232 1743.62 591.731 C 1759.68 598.223 1768.57 603.647 1782.3 613.709 C 1799.62 612.895 1812 611.88 1829.06 609.116 C 1829.1 626.07 1830.43 645.378 1831.12 662.481 L 1834.17 752.536 C 1835.39 792.461 1834.95 845.638 1838.29 883.882 C 1875.68 892.556 1871.61 922.317 1880.72 951.609 C 1883.69 961.164 1896.09 975.052 1900.93 984.671 C 1907.27 997.265 1911.18 1007.91 1911.61 1022.16 C 1915.72 1055.24 1891.18 1073 1891.07 1100.52 C 1890.96 1128.56 1910.85 1144.43 1899.69 1175.53 C 1896.6 1184.16 1883.77 1213.14 1876.56 1216.97 C 1872.72 1226.1 1874.86 1233.76 1876.81 1243.31 C 1847.25 1250.93 1816.62 1254.25 1787.56 1262.56 C 1760.98 1270.16 1734.28 1297.01 1727.28 1323.72 C 1709.12 1334.46 1688.72 1352.98 1675.04 1369.5 C 1657.1 1391.15 1641.38 1395.85 1620.11 1410.61 C 1588.91 1432.26 1552.32 1442.9 1520.99 1462.36 C 1460.34 1500.03 1414.27 1566.49 1398.14 1635.78 C 1389.28 1673.13 1386.06 1706.18 1395.41 1744.25 C 1399.7 1761.72 1406.42 1778.77 1410.49 1795.95 C 1413.97 1806.1 1417.51 1816.22 1421.13 1826.33 C 1426.2 1835.29 1430.6 1847.38 1434.37 1853.65 C 1452.42 1877.7 1455.58 1882.95 1423.96 1886.83 C 1410.01 1910.2 1396.22 1909.45 1374.85 1892.57 C 1365.9 1885.51 1361.08 1873.41 1351.22 1866.03 C 1341.71 1869.42 1312.85 1875.92 1301.82 1878.6 C 1285.88 1874.01 1272.1 1868.87 1264.8 1852.78 C 1257.72 1837.2 1245.23 1839.6 1231.38 1842.98 C 1217.18 1846.45 1203.19 1840.65 1191.5 1832.72 C 1184.46 1808.16 1173.97 1810.97 1151.4 1807.48 C 1144.98 1806.46 1138.66 1804.84 1132.54 1802.65 L 1131.33 1802.21 C 1123.83 1784.39 1121.58 1758.26 1112.97 1739.65 C 1111.23 1735.88 1110.85 1724.33 1107.69 1721.37 C 1095.46 1709.92 1085.79 1706.49 1086.5 1687.01 C 1085.66 1664.44 1090.32 1642.21 1090.91 1619.32 C 1084.24 1613.32 1075.97 1609.15 1068.5 1604.38 C 1056.84 1596.95 1040.06 1579.37 1034.98 1566.63 C 1031.65 1558.3 1031.55 1548.83 1026.92 1537.59 L 1026.21 1535.89 C 1016.46 1528.08 1010.68 1527.51 1000.17 1522.17 C 987.98 1515.97 992.635 1496.33 988.656 1486.47 C 981.409 1468.51 963.623 1453.41 955.22 1435.54 C 937.163 1397.57 936.14 1361.5 903.533 1330.7 C 891.909 1319.73 884.938 1319.2 873.255 1309.73 C 865.636 1303.55 864.217 1284 854.85 1279.32 C 845.322 1274.56 836.774 1273.44 826.77 1268.07 L 825.416 1267.34 L 825.317 1265.97 L 825.144 1263.98 C 823.747 1246.64 808.713 1245.1 798.593 1258.74 C 779.168 1257.51 748.26 1254.58 729.858 1247.5 C 722.112 1244.52 717.391 1228.54 704.728 1232.48 C 698.677 1238.46 703.051 1243.55 700.594 1252.5 C 691.878 1260.52 682.05 1247.33 662.415 1266.03 C 633.419 1293.65 641.686 1317.43 627.53 1349.14 C 625.216 1349.66 617.967 1351.51 616.661 1353.02 C 606.83 1364.38 600.91 1379.54 591.822 1392.21 C 572.278 1383.61 567.498 1375.7 551.986 1367.14 C 524.465 1351.94 487.542 1343.16 470.662 1313.42 C 463.429 1300.67 448.347 1295.99 434.855 1292.18 C 429.059 1281.69 417.597 1265.78 414.694 1254.94 C 410.101 1236.8 427.141 1212.98 420.5 1195.76 C 416.542 1185.51 404.019 1182.05 397.824 1169.42 C 404.2 1166.08 410.601 1164.01 409.764 1155.77 C 405.598 1149.08 396.31 1146.33 388.762 1143.09 C 383.735 1133.61 376.427 1119.14 372.447 1109.57 C 363.085 1087.04 348.488 1097.6 329.436 1088.76 L 328.348 1088.24 C 316.514 1072.92 314.976 1058.45 303.418 1045.3 C 297.312 1038.35 274.391 1037.43 268.691 1029.04 C 258.478 1014 263.31 999.194 248.667 985.288 C 235.783 973.053 213.839 971.076 202.764 959.212 C 196.042 952.011 200.751 938.296 194.562 928.89 C 185.845 915.644 169.649 913.378 155.195 909.75 C 156.976 894.171 153.102 886.017 147.956 871.734 C 172.795 872.972 202.56 876.249 227.55 878.361 C 287.372 883.275 347.145 888.762 406.862 894.822 C 467.572 900.74 532.537 904.551 592.774 912.356 C 596.711 868.186 600.971 824.046 605.551 779.938 L 629.588 526.486 C 641.029 396.503 653.425 266.605 666.775 136.804 z" fill="rgb(255,255,255)" transform="translate(0,0)"></path>
<path d="M 666.775 136.804 C 696.245 137.87 737.838 143.064 768.708 145.399 L 1061.55 168.253 C 1060.46 202.095 1057.18 238.482 1054.67 272.38 L 1040.05 471.844 C 1051.47 469.604 1057.19 468.95 1068.78 469.006 C 1070.18 485.127 1068.94 493.385 1083.28 502.948 C 1095.6 503.665 1131.22 502.414 1141.02 496.292 C 1141.8 497.482 1142.75 500.876 1142.93 502.175 C 1144.13 510.656 1149.88 513.494 1156.99 519.212 C 1185.86 523.834 1213.4 534.768 1242.21 539.164 C 1251.17 540.531 1269.15 528.256 1275.83 532.263 C 1285.96 538.351 1279.83 560.271 1280.22 569.772 C 1280.35 573.103 1282.66 579.905 1283.63 582.885 C 1290.54 569.592 1291.26 567.656 1304.06 560.554 C 1310.31 564.054 1320.63 572.089 1327.18 576.618 C 1334.46 573.27 1343.8 566.113 1351.21 561.463 C 1359.9 565.868 1386.37 580.222 1389.86 588.644 C 1390.69 590.669 1398.16 592.454 1401.07 593.561 C 1409.51 596.774 1412.27 599.652 1418.4 605.706 C 1426.61 589.765 1425.8 582.637 1441.27 572.667 C 1448.61 578.283 1453.13 580.457 1461.71 583.374 C 1471.02 578.569 1481.02 571.459 1490.99 566.131 C 1505.22 575.086 1514.52 592.662 1525.07 600.083 C 1528.44 600.486 1538.86 587.484 1543.8 585.376 C 1558.4 579.148 1613.27 559.692 1626.36 560.202 C 1636.38 560.593 1646.98 568.245 1656.44 566.472 C 1661.68 565.491 1663.78 560.766 1666.43 556.669 C 1669.55 555.631 1675.41 553.672 1678.61 553.208 C 1693.19 551.093 1704.94 573.597 1716.83 579.738 C 1725.3 584.109 1734.97 588.232 1743.62 591.731 C 1759.68 598.223 1768.57 603.647 1782.3 613.709 C 1799.62 612.895 1812 611.88 1829.06 609.116 C 1829.1 626.07 1830.43 645.378 1831.12 662.481 L 1834.17 752.536 C 1835.39 792.461 1834.95 845.638 1838.29 883.882 C 1875.68 892.556 1871.61 922.317 1880.72 951.609 C 1883.69 961.164 1896.09 975.052 1900.93 984.671 C 1907.27 997.265 1911.18 1007.91 1911.61 1022.16 C 1915.72 1055.24 1891.18 1073 1891.07 1100.52 C 1890.96 1128.56 1910.85 1144.43 1899.69 1175.53 C 1896.6 1184.16 1883.77 1213.14 1876.56 1216.97 C 1876.41 1213.11 1882.56 1208.19 1884.3 1202.78 C 1881.05 1203.25 1880.96 1203.87 1878.06 1205.92 C 1865.41 1191.91 1866.9 1175.58 1886.94 1171.22 C 1886.94 1171.34 1886.9 1168.06 1886.92 1168.21 C 1885.74 1158.68 1889.72 1151.86 1889.79 1142.68 C 1869.38 1132.04 1871.7 1119.9 1884.43 1103.65 C 1878.91 1081.31 1900.06 1059.91 1902.22 1045.33 C 1896.21 1036.97 1899.47 1032.73 1902.67 1023.9 C 1892.4 1015.82 1897.75 1012.38 1893.14 1006.76 C 1889.59 999.822 1889.36 995.616 1882.35 991.63 C 1883.6 985.438 1887.68 985.546 1886.94 980.99 C 1882.82 976.583 1883.62 982.231 1880.76 978.552 C 1877.2 973.979 1878.13 971.04 1872.12 968.306 L 1871.21 966.298 C 1872.06 964.08 1871.99 964.166 1872.06 961.771 C 1868.96 960.085 1869.14 960.689 1864.97 960.999 C 1853.55 943.013 1864.54 945.487 1865.14 936.365 C 1862.19 934.262 1858.32 932.151 1857.23 928.959 C 1857.28 927.872 1857.85 919.643 1857.74 919.426 C 1855.17 914.065 1848.02 897.369 1843.27 895.09 C 1831.09 894.512 1832.43 893.218 1822.04 883.784 C 1820.5 874.182 1822.33 866.825 1821.52 857.278 C 1815.28 783.753 1815.9 708.908 1812.51 635.035 C 1800.89 635.841 1786.62 637.682 1775.29 635.467 C 1767.05 633.287 1761.51 625.681 1754.02 621.952 C 1738.5 614.214 1722.5 608.05 1707.04 600.208 C 1695.99 594.604 1689.48 587.246 1680.93 578.536 C 1672.91 584.345 1662.7 592.479 1652.16 591.097 C 1643.64 589.98 1636.54 585.944 1627.6 585.657 C 1615.99 585.284 1564.3 599.235 1555.75 605.55 C 1547.02 611.991 1538.67 627.373 1526.42 625.673 C 1511.16 623.554 1497.2 605.472 1487.68 594.411 C 1471.5 603.205 1464.17 608.035 1445.78 600.828 C 1433.35 627.622 1431.24 618.858 1416.12 637.515 C 1410.17 631.255 1403.74 624.202 1397.57 618.257 C 1389.47 616.223 1382.67 614.938 1375.54 610.451 C 1368.78 598.762 1367.98 598.098 1357.01 590.77 C 1354.83 597.934 1345.69 614.249 1339.38 618.282 L 1337.47 618.156 C 1334.04 612.575 1336.49 604.222 1337.59 597.589 C 1321.58 603.191 1320.04 602.384 1305.85 592.857 C 1301.29 604.068 1296.02 618.086 1291.08 628.936 C 1279.54 612.612 1264.9 579.603 1263.84 559.327 C 1245.43 565.44 1235.57 563.68 1217.05 558.745 C 1198.5 553.799 1179.61 549.231 1161.34 543.339 C 1158.55 551.647 1155.51 559.871 1152.24 568.001 C 1146.19 556.988 1142 548.237 1139.01 535.894 C 1131.23 532.884 1130.71 533.751 1128.22 525.898 C 1124.43 524.599 1116.02 524.689 1111.94 525.364 C 1082.43 530.251 1056.51 525.853 1050.32 490.806 C 1039.86 491.38 1027.34 492.9 1017.36 493.201 C 1023.43 425.036 1028.7 356.802 1033.16 288.513 C 1035.24 257.901 1038.76 218.4 1039.34 188.23 C 921.876 180.533 803.223 167.533 685.331 160.046 C 681.135 191.802 679.165 230.908 675.994 263.694 L 650.181 534.945 L 624.613 806.773 C 620.836 847.995 614.344 894.679 612.696 935.382 C 582.391 930.432 542.388 928.213 511.122 925.403 C 451.536 919.658 391.908 914.345 332.245 909.467 L 231.499 900.058 C 210.861 898.03 187.648 894.766 167.218 895.052 C 174.998 898.889 182.75 902.705 190.251 906.733 C 200.193 912.071 218.221 925.775 228.949 927.439 C 250.875 930.841 275.308 932.274 297.557 934.647 L 471.049 952.916 L 1051.27 1017.22 C 1048.06 1072.21 1041.16 1130.21 1035.85 1185.1 C 1028.83 1258.43 1022.19 1331.8 1015.95 1405.21 L 1009.61 1474.44 C 1008.53 1485.71 1006.57 1500.35 1006.02 1511.3 C 1018.42 1516.7 1030.59 1520.89 1039.74 1531.14 C 1040.58 1541.76 1043.16 1549.98 1044.35 1559.76 C 1050.54 1567.43 1060.32 1582.9 1066.43 1588.23 C 1079.63 1599.74 1090.46 1600.87 1101.89 1616.26 L 1101.98 1617.92 C 1103.03 1638.28 1095.76 1657.44 1097.99 1677.22 C 1098.95 1678.41 1107.18 1685.38 1106.71 1686.6 C 1104.55 1692.21 1113.99 1703.88 1119.17 1707.01 C 1132.13 1714.84 1138.96 1715.07 1130.01 1736.8 C 1134.46 1740.81 1142.12 1746.88 1142.5 1753.05 C 1142.72 1756.57 1140.29 1766.41 1141.12 1768.99 C 1145.65 1769.34 1143.65 1768.53 1147.17 1771.89 C 1147.34 1774.17 1148.47 1780.07 1147.94 1781.2 C 1150.53 1786.54 1150.6 1787.84 1150.56 1793.78 C 1157.66 1801.55 1187.5 1792.71 1195.56 1802.85 C 1197.48 1805.26 1198.49 1806.96 1199.91 1809.69 L 1199.7 1821.34 C 1208.15 1827 1213.02 1829.86 1222.76 1833.08 C 1240.11 1828.36 1250.29 1825.69 1268.14 1829.98 C 1277.52 1838.14 1278.29 1841.48 1279.66 1853.44 C 1286.79 1859.63 1290.94 1862.37 1299.79 1866.16 C 1313.11 1862.66 1351.33 1850.07 1361.21 1857.27 C 1377.6 1869.2 1379.47 1894.41 1407.76 1890.8 C 1410.15 1890.49 1409.81 1890.2 1411.22 1888.17 C 1409.34 1881.05 1401.12 1875.43 1405.51 1868.01 C 1406.83 1865.78 1414.76 1860.63 1417.48 1860.88 C 1419.99 1861.11 1420.79 1864.71 1425.05 1865.01 C 1423.78 1865.26 1423.51 1865.49 1422.32 1866 L 1422.99 1866.74 L 1428.41 1865.64 C 1431.49 1862.42 1428.85 1861.15 1430.29 1854.88 L 1434.37 1853.65 C 1452.42 1877.7 1455.58 1882.95 1423.96 1886.83 C 1410.01 1910.2 1396.22 1909.45 1374.85 1892.57 C 1365.9 1885.51 1361.08 1873.41 1351.22 1866.03 C 1341.71 1869.42 1312.85 1875.92 1301.82 1878.6 C 1285.88 1874.01 1272.1 1868.87 1264.8 1852.78 C 1257.72 1837.2 1245.23 1839.6 1231.38 1842.98 C 1217.18 1846.45 1203.19 1840.65 1191.5 1832.72 C 1184.46 1808.16 1173.97 1810.97 1151.4 1807.48 C 1144.98 1806.46 1138.66 1804.84 1132.54 1802.65 L 1131.33 1802.21 C 1123.83 1784.39 1121.58 1758.26 1112.97 1739.65 C 1111.23 1735.88 1110.85 1724.33 1107.69 1721.37 C 1095.46 1709.92 1085.79 1706.49 1086.5 1687.01 C 1085.66 1664.44 1090.32 1642.21 1090.91 1619.32 C 1084.24 1613.32 1075.97 1609.15 1068.5 1604.38 C 1056.84 1596.95 1040.06 1579.37 1034.98 1566.63 C 1031.65 1558.3 1031.55 1548.83 1026.92 1537.59 L 1026.21 1535.89 C 1016.46 1528.08 1010.68 1527.51 1000.17 1522.17 C 987.98 1515.97 992.635 1496.33 988.656 1486.47 C 981.409 1468.51 963.623 1453.41 955.22 1435.54 C 937.163 1397.57 936.14 1361.5 903.533 1330.7 C 891.909 1319.73 884.938 1319.2 873.255 1309.73 C 865.636 1303.55 864.217 1284 854.85 1279.32 C 845.322 1274.56 836.774 1273.44 826.77 1268.07 L 825.416 1267.34 L 825.317 1265.97 L 825.144 1263.98 C 823.747 1246.64 808.713 1245.1 798.593 1258.74 C 779.168 1257.51 748.26 1254.58 729.858 1247.5 C 722.112 1244.52 717.391 1228.54 704.728 1232.48 C 698.677 1238.46 703.051 1243.55 700.594 1252.5 C 691.878 1260.52 682.05 1247.33 662.415 1266.03 C 633.419 1293.65 641.686 1317.43 627.53 1349.14 C 625.216 1349.66 617.967 1351.51 616.661 1353.02 C 606.83 1364.38 600.91 1379.54 591.822 1392.21 C 572.278 1383.61 567.498 1375.7 551.986 1367.14 C 524.465 1351.94 487.542 1343.16 470.662 1313.42 C 463.429 1300.67 448.347 1295.99 434.855 1292.18 C 429.059 1281.69 417.597 1265.78 414.694 1254.94 C 410.101 1236.8 427.141 1212.98 420.5 1195.76 C 416.542 1185.51 404.019 1182.05 397.824 1169.42 C 404.2 1166.08 410.601 1164.01 409.764 1155.77 C 405.598 1149.08 396.31 1146.33 388.762 1143.09 C 383.735 1133.61 376.427 1119.14 372.447 1109.57 C 363.085 1087.04 348.488 1097.6 329.436 1088.76 L 328.348 1088.24 C 316.514 1072.92 314.976 1058.45 303.418 1045.3 C 297.312 1038.35 274.391 1037.43 268.691 1029.04 C 258.478 1014 263.31 999.194 248.667 985.288 C 235.783 973.053 213.839 971.076 202.764 959.212 C 196.042 952.011 200.751 938.296 194.562 928.89 C 185.845 915.644 169.649 913.378 155.195 909.75 C 156.976 894.171 153.102 886.017 147.956 871.734 C 172.795 872.972 202.56 876.249 227.55 878.361 C 287.372 883.275 347.145 888.762 406.862 894.822 C 467.572 900.74 532.537 904.551 592.774 912.356 C 596.711 868.186 600.971 824.046 605.551 779.938 L 629.588 526.486 C 641.029 396.503 653.425 266.605 666.775 136.804 z" fill="rgb(19,33,71)" transform="translate(0,0)"></path>
<path d="M 1137.12 1764.74 C 1137.98 1766.23 1138.71 1767.67 1139.24 1769.3 L 1141.12 1768.99 C 1145.65 1769.34 1143.65 1768.53 1147.17 1771.89 C 1147.34 1774.17 1148.47 1780.07 1147.94 1781.2 L 1145.04 1782.37 C 1141.61 1783.18 1140.86 1784.3 1138.3 1786.69 C 1134.43 1777.63 1134.17 1773.82 1137.12 1764.74 z" fill="rgb(14,27,67)" transform="translate(0,0)"></path>
<path d="M 1138.3 1786.69 C 1133.13 1784.4 1131.45 1762.01 1132.56 1758.28 L 1134.28 1758.25 C 1137.47 1761.92 1136.53 1759.85 1137.12 1764.74 C 1134.17 1773.82 1134.43 1777.63 1138.3 1786.69 z" fill="rgb(172,172,179)" transform="translate(0,0)"></path>
<path d="M 1097.06 1684.74 C 1102.43 1689.35 1098.24 1693.58 1102.63 1701.69 C 1100.62 1701.67 1101.45 1701.61 1099.24 1699.96 C 1097.43 1695.71 1097.42 1689.54 1097.06 1684.74 z" fill="rgb(255,255,255)" transform="translate(0,0)"></path>
<path d="M 1751.88 1244.25 C 1745.37 1243.7 1737.71 1244.21 1733.55 1239.56 C 1729.66 1224.76 1722.82 1237.67 1712.99 1230.13 C 1710.68 1223.6 1710.82 1223.86 1704.53 1220.81 C 1700.18 1218.69 1693.74 1215.63 1693.11 1210.4 L 1698.33 1207.05 C 1698.9 1203.28 1696.29 1199.88 1694.56 1195.13 L 1696.04 1192.99 C 1703.31 1193.8 1718.84 1207.52 1721.02 1207.32 C 1733.54 1206.18 1736.93 1222.72 1742.5 1223.55 C 1742.68 1215.89 1743.45 1194.96 1754.28 1194.64 C 1764.08 1201.89 1757.29 1223.95 1762.28 1230.47 C 1771.06 1241.95 1783.6 1231.51 1782.39 1255.08 C 1804.72 1244 1803.09 1250.23 1824.96 1246.72 L 1826.5 1246.47 L 1830.87 1238.13 C 1834.83 1235.85 1838.59 1233.26 1843.01 1232.65 C 1845.31 1234.33 1845.28 1234.51 1847.96 1235.28 L 1850.06 1234.08 C 1849.67 1231.25 1845.26 1229.7 1842.34 1224.72 C 1843.27 1213.02 1857.32 1222.3 1862.57 1222.8 C 1866.91 1221.23 1872.79 1210.35 1878.06 1205.92 C 1880.96 1203.87 1881.05 1203.25 1884.3 1202.78 C 1882.56 1208.19 1876.41 1213.11 1876.56 1216.97 C 1872.72 1226.1 1874.86 1233.76 1876.81 1243.31 C 1847.25 1250.93 1816.62 1254.25 1787.56 1262.56 C 1760.98 1270.16 1734.28 1297.01 1727.28 1323.72 C 1709.12 1334.46 1688.72 1352.98 1675.04 1369.5 C 1657.1 1391.15 1641.38 1395.85 1620.11 1410.61 C 1588.91 1432.26 1552.32 1442.9 1520.99 1462.36 C 1460.34 1500.03 1414.27 1566.49 1398.14 1635.78 C 1389.28 1673.13 1386.06 1706.18 1395.41 1744.25 C 1399.7 1761.72 1406.42 1778.77 1410.49 1795.95 C 1404.81 1797.55 1403.12 1796.95 1397.2 1796.44 C 1394.87 1790.95 1389.54 1779.9 1397.03 1776.36 C 1397.99 1779.23 1397.38 1778.3 1399.41 1780.47 L 1401.43 1780.52 C 1400.61 1772.36 1392.75 1772.81 1388.83 1766.17 C 1387.18 1763.38 1386.37 1758.26 1385.75 1754.99 C 1375.91 1742.89 1375.6 1743.9 1380.64 1729.43 C 1381.17 1728.54 1382.31 1725.68 1382.79 1724.57 C 1379.32 1719.8 1377.81 1719.19 1372.1 1718.29 C 1371.87 1713.76 1372.1 1702.64 1369.08 1699.85 C 1363.28 1703.25 1356.89 1704.72 1350.47 1701.99 C 1346.16 1695.42 1363 1682.32 1368.27 1678.86 C 1370.09 1678.71 1371.35 1678.52 1373.15 1678.22 C 1375.57 1673.13 1378.09 1669.1 1380.48 1664.15 C 1377.22 1666.73 1375.67 1668.61 1371.9 1668.41 C 1370.36 1665.66 1371.46 1659.65 1371.77 1656.15 C 1370.38 1656.91 1370.14 1657.55 1369.15 1658.88 C 1361.7 1668.91 1347.09 1671.53 1335.43 1673.15 C 1330.69 1673.81 1326.45 1673.59 1322.63 1670.49 C 1320.86 1666.75 1320.89 1668.54 1322.06 1664.95 C 1326.17 1661.2 1334.96 1658.38 1340.36 1657.3 C 1340.58 1653.54 1313.9 1644.99 1318.2 1633.09 C 1320.12 1632.23 1322.13 1631.89 1324.13 1632.6 C 1338.19 1637.58 1347.72 1641.55 1362.91 1643.38 L 1361.33 1640.96 L 1361.96 1639.4 C 1376.85 1627.69 1392.04 1643.39 1384.27 1615.76 C 1391.22 1608.45 1401.29 1582.51 1399.36 1573.19 C 1394.29 1585.85 1382.5 1576.74 1375.76 1572.5 C 1375.68 1572.54 1373.73 1573.45 1373.65 1573.54 C 1369.51 1577.91 1354.86 1574.6 1347.23 1573.6 C 1341.98 1567.46 1323.53 1552.09 1329.84 1544.17 C 1334.67 1543.1 1345.82 1550.52 1350.59 1553.3 C 1362.21 1549.8 1364.25 1555.33 1370.71 1554.85 C 1369.54 1552.08 1368.2 1550.06 1368.91 1547.3 C 1376.33 1545.24 1381.48 1556.65 1386.97 1556.8 L 1387.5 1555.52 C 1386.34 1552.64 1384.8 1550.14 1385.55 1547.34 C 1389.67 1540.92 1394.47 1537.82 1400.93 1534.17 L 1406.76 1545.32 C 1412.44 1542.99 1418.93 1541.73 1423.57 1537.76 C 1426.83 1534.97 1435.21 1525.57 1435.68 1521.32 C 1429.1 1518.31 1425.92 1520.74 1418.95 1522.84 C 1420.31 1523.8 1415.5 1520.5 1416.42 1520.81 C 1409.33 1518.46 1397.87 1521.91 1392.05 1515.34 L 1392.72 1512.8 C 1403.09 1501.57 1409.22 1498.6 1424.48 1501.7 C 1433.96 1503.63 1428.24 1500.67 1433.56 1497.66 L 1435.47 1498.41 C 1436.54 1500.67 1436.94 1501.85 1438.53 1503.79 C 1440.25 1501.31 1440.09 1492.78 1438.78 1490.06 C 1426.63 1489.16 1422.18 1475.6 1437.14 1474.98 C 1448.25 1479.99 1450.62 1487.16 1460.97 1492.7 C 1463.32 1493.96 1462.97 1493.9 1465.25 1493.11 C 1465.42 1489.62 1463.18 1487.16 1461.2 1484.05 L 1471.12 1472.22 C 1468.32 1466.27 1461.65 1454.7 1466.72 1448.6 C 1475.33 1447.77 1485.17 1466.18 1491.71 1468.86 C 1492.06 1464.47 1492.41 1461.33 1493.14 1457 C 1494.72 1455.7 1495.58 1454.98 1497 1453.52 C 1496.35 1447.81 1490.3 1445.3 1491.26 1438.81 C 1493.95 1435.86 1492.37 1437.09 1496.69 1435.61 C 1500.68 1435.93 1506.51 1440.75 1509.62 1443.34 C 1519.22 1451.32 1514.7 1445.81 1523.99 1447.42 C 1525.84 1446.49 1525.66 1446.63 1527.35 1445.38 L 1525.03 1444.44 L 1525.03 1442.95 C 1526.4 1442.26 1527.76 1441.76 1528.81 1440.79 C 1526.53 1438.34 1523.06 1437.37 1520.64 1436.17 C 1517.34 1434.53 1518.08 1428.75 1513.38 1424.34 C 1497.83 1428.5 1476.52 1421.08 1467.27 1407.82 L 1468.34 1404.54 C 1463.12 1401.26 1450.96 1395.85 1453.3 1389.04 C 1457.02 1386.77 1477 1392.03 1482.9 1393.04 L 1490.11 1399.59 C 1501.78 1400.81 1503.28 1403.73 1513.22 1410.51 L 1503.54 1399.88 C 1502.25 1393.1 1498.87 1382.29 1504.14 1376.95 C 1511.47 1376.3 1518.45 1393.54 1519.51 1400.09 C 1520.6 1406.84 1529.36 1407.28 1532.86 1413.93 C 1536.21 1420.33 1532.58 1421.13 1532.95 1426.41 C 1538 1420.15 1534.92 1376.59 1550.39 1376.71 C 1559.62 1382.52 1556.35 1396.97 1552.96 1404.84 C 1551.96 1407.17 1556.18 1412.16 1557.76 1414.29 L 1556.29 1423.89 C 1561.35 1419.97 1570.39 1410.78 1576.12 1412.99 C 1578.44 1417.47 1577.13 1420.03 1575.8 1425.23 C 1579.75 1424.45 1585.12 1409.55 1592.78 1407.88 C 1595.14 1409.66 1594.99 1411.15 1595.89 1414.57 L 1596.24 1415.92 C 1607.85 1407.13 1628.39 1396.29 1638.92 1389.68 C 1647.81 1384.09 1698.23 1336.58 1701.98 1330.01 C 1698.1 1328.79 1694.72 1328.47 1692.47 1325.78 L 1692.92 1324.14 C 1700.59 1315.61 1716.41 1312.31 1727.42 1309.22 C 1718.21 1307.99 1702.68 1307.02 1695.2 1303.11 C 1690.89 1296.03 1690.14 1294.99 1682.83 1291.11 C 1681.94 1287.28 1681.44 1286.4 1682.64 1282.61 C 1690.69 1275.58 1704.7 1291.42 1713.52 1290.15 C 1721.39 1282.88 1724.35 1285.8 1733.15 1289.63 C 1735.51 1286.43 1740.04 1280.09 1743.05 1278.08 C 1759.89 1266.87 1770.03 1263.5 1751.88 1244.25 z" fill="rgb(14,27,67)" transform="translate(0,0)"></path>
<path d="M 1382.79 1724.57 C 1386.13 1729.24 1390.03 1735.21 1389.6 1741.18 C 1386.86 1745.31 1386.11 1745.18 1386.13 1749.36 L 1390.74 1753.19 C 1388.74 1754.94 1389.02 1754.28 1385.75 1754.99 C 1375.91 1742.89 1375.6 1743.9 1380.64 1729.43 C 1381.17 1728.54 1382.31 1725.68 1382.79 1724.57 z" fill="rgb(19,33,71)" transform="translate(0,0)"></path>
<path d="M 1682.83 1291.11 C 1687.57 1287.94 1686.3 1287.68 1690.69 1288.15 C 1695.48 1291.89 1696.06 1297.31 1695.2 1303.11 C 1690.89 1296.03 1690.14 1294.99 1682.83 1291.11 z" fill="rgb(19,33,71)" transform="translate(0,0)"></path>
<path d="M 1397.2 1796.44 C 1403.12 1796.95 1404.81 1797.55 1410.49 1795.95 C 1413.97 1806.1 1417.51 1816.22 1421.13 1826.33 C 1426.2 1835.29 1430.6 1847.38 1434.37 1853.65 L 1430.29 1854.88 C 1428.85 1861.15 1431.49 1862.42 1428.41 1865.64 L 1422.99 1866.74 L 1422.32 1866 C 1423.51 1865.49 1423.78 1865.26 1425.05 1865.01 C 1427.41 1857.1 1410.34 1847.1 1416.55 1840.85 L 1421.1 1841.05 C 1421.08 1839.59 1395.73 1823.78 1404.51 1807.24 C 1404.27 1806.65 1398.12 1797.82 1397.2 1796.44 z" fill="rgb(14,27,67)" transform="translate(0,0)"></path>
<path d="M 1397.2 1796.44 C 1403.12 1796.95 1404.81 1797.55 1410.49 1795.95 C 1413.97 1806.1 1417.51 1816.22 1421.13 1826.33 C 1410.75 1826.61 1410.46 1816.75 1408.12 1809.89 C 1406.68 1808.84 1405.48 1807.95 1404.51 1807.24 C 1404.27 1806.65 1398.12 1797.82 1397.2 1796.44 z" fill="rgb(19,33,71)" transform="translate(0,0)"></path>
<path d="M 1372.1 1718.29 C 1377.81 1719.19 1379.32 1719.8 1382.79 1724.57 C 1382.31 1725.68 1381.17 1728.54 1380.64 1729.43 C 1375.06 1731.3 1373.67 1737.5 1364.77 1737.34 C 1362.04 1735.1 1363.09 1736.54 1362.26 1732.4 C 1363.39 1726.87 1368.15 1722.19 1372.1 1718.29 z" fill="rgb(19,33,71)" transform="translate(0,0)"></path>
<path d="M 1893.14 1006.76 C 1889.65 1008.19 1888.86 1008.2 1885.9 1007.23 C 1882.44 1002.83 1881.88 997.066 1882.35 991.63 C 1889.36 995.616 1889.59 999.822 1893.14 1006.76 z" fill="rgb(14,27,67)" transform="translate(0,0)"></path>
<path d="M 1864.97 960.999 C 1869.14 960.689 1868.96 960.085 1872.06 961.771 C 1871.99 964.166 1872.06 964.08 1871.21 966.298 L 1872.12 968.306 C 1870.62 971.666 1870.15 973.612 1866.39 973.539 C 1862.88 969.036 1863.91 966.234 1864.97 960.999 z" fill="rgb(19,33,71)" transform="translate(0,0)"></path>
<path d="M 892.045 360.202 C 893.098 350.956 894.856 302.619 899.989 299.367 C 901.906 300.949 903.314 306.687 903.024 308.953 C 900.597 327.884 900.199 347.173 897.53 366.059 C 875.668 366.04 849.003 361.444 825.637 360.579 C 823.669 381.112 821.347 401.354 820.298 421.974 C 833.187 432.798 850.197 446.022 861.441 458.383 C 864.564 461.815 863.142 465.769 862.268 470.265 C 871.659 477.377 881.82 484.136 891.659 490.718 C 914.62 506.663 931.1 525.769 951.64 545.263 C 963.124 556.162 990.605 577.218 999.469 589.526 C 1006.72 599.589 1003.86 617.361 1002 629.499 C 1010.25 636.167 1017.16 639.205 1026.62 643.955 C 1032.37 653.474 1039.94 674.898 1044.11 685.837 C 1054.15 690.066 1064.97 691.843 1073.29 699.407 C 1080.26 705.747 1123.3 712.673 1135.9 716.185 L 1135.74 736.048 C 1144.85 737.069 1153.91 737.624 1163.05 738.248 C 1176.2 754.459 1194.56 765.406 1214.57 771.013 C 1215.91 785.254 1216 796.381 1221.05 809.775 C 1233.74 816.373 1269.17 827.633 1284.08 832.703 C 1282.86 821.333 1278.65 805.985 1278.47 796.076 L 1279.58 794.965 C 1291.83 795.199 1352.69 819.834 1370.32 826.286 C 1375.44 808.348 1379.06 790.005 1383.51 771.926 C 1385.55 763.631 1387.7 751.254 1391.19 743.849 C 1394.01 740.869 1464.5 730.958 1471.88 730.359 C 1477.66 733.218 1488.21 740.318 1494.22 743.858 C 1515.46 756.381 1537.98 771.295 1560.43 781.387 C 1581.7 767.88 1598.77 770.015 1610.45 793.413 C 1625.89 758.159 1674.15 748.556 1702.38 774.611 C 1710.29 781.919 1714.2 789.395 1718.69 799.029 C 1730.12 789.29 1744.08 784.614 1758.17 791.091 C 1792.44 806.845 1789.19 849.322 1776.38 877.568 C 1758.55 916.894 1714.28 944.663 1675.45 958.926 C 1675.22 963.879 1675.73 971.647 1674.46 975.977 L 1671.71 977.438 C 1670.46 980.432 1672.87 982.348 1674.44 987.519 C 1673.31 994.728 1668.63 993.368 1669.75 1001.57 C 1672.75 1011.11 1681.68 1009.94 1682.88 1021.03 C 1683.35 1027.58 1678.48 1044.69 1677.04 1051.53 C 1676.85 1052.44 1679.8 1055.37 1680.53 1056.1 C 1680.37 1059.34 1679.32 1060.72 1677.81 1063.57 C 1678.06 1065.43 1678.16 1066.63 1678.11 1068.53 C 1675.39 1073.28 1668.11 1099.65 1667.16 1105.58 C 1668.17 1108.85 1669.85 1111.86 1668.71 1114.33 L 1666.77 1113.89 L 1667.52 1117.6 C 1665.51 1120.57 1665.07 1119.97 1661.05 1121.66 C 1664.05 1126.21 1667.81 1130.7 1662.32 1134.56 C 1656.63 1135.59 1655.3 1135.19 1649.52 1134.21 L 1646.15 1135.64 C 1642.63 1139.53 1628.1 1140.96 1622.73 1141.45 C 1621.9 1130.72 1621.28 1129.81 1615.99 1120.27 C 1616.51 1124.2 1617.24 1131.3 1618.2 1134.89 C 1614.43 1142.29 1609.34 1154.9 1602.97 1159.39 C 1600.2 1159.67 1600.37 1159.72 1597.7 1158.99 L 1596.46 1160.87 C 1597.14 1163.9 1597.79 1166.95 1598.41 1170 C 1582.11 1174.51 1579.11 1176.95 1563.09 1168.79 C 1560.93 1167.68 1560.24 1167.82 1557.87 1167.74 L 1557.31 1167.15 C 1555.06 1164.69 1553.99 1164.48 1553.83 1161.91 C 1557.02 1161.46 1555.74 1162.19 1558.06 1160.34 L 1557.84 1157.01 C 1556.48 1155.3 1556.15 1154.99 1554.49 1153.67 L 1553.03 1152.53 C 1552.07 1148.82 1552.4 1149.94 1554.19 1145.56 C 1551.45 1145.01 1548.71 1144.4 1546 1143.74 L 1545.06 1142.09 C 1545.36 1138.31 1546.02 1135.52 1544.5 1132.13 C 1539.44 1128.92 1545.07 1133.74 1537.15 1132.72 C 1535.78 1130.99 1534.66 1129.47 1533.38 1127.67 C 1529.78 1127.74 1529.58 1128 1526.31 1126.29 C 1522.29 1121.85 1525.16 1118.22 1521.55 1115.24 C 1510.68 1116.8 1513.63 1112.28 1511.43 1104.57 C 1511.35 1104.29 1500.22 1103.09 1499.4 1102 C 1495.75 1097.2 1498.34 1093.92 1493.2 1089.59 C 1489.83 1089.17 1487.44 1089.36 1485.11 1087.04 C 1481.82 1072.27 1476.07 1083 1466.98 1075.63 C 1465.27 1072.49 1465.35 1072.73 1465.62 1069.16 C 1464.06 1062.69 1457.92 1052.59 1451.63 1049.55 C 1449.14 1047.5 1449.3 1047.63 1446.21 1046.63 L 1429.81 1128.81 C 1426.49 1144.82 1419.96 1172.3 1418.38 1188.06 C 1431.29 1199.82 1431.5 1217.44 1424.83 1232.72 L 1422.25 1234.08 C 1423.39 1237.42 1428.08 1241.16 1430.71 1244.14 C 1433.97 1247.83 1434.74 1250.19 1436.69 1254.65 C 1444.01 1258.59 1513.85 1310.21 1503.22 1269.95 C 1501.65 1264 1491.05 1260.46 1490.98 1251.11 C 1494.13 1244.18 1495.98 1247.76 1497.76 1241.58 L 1500.92 1240.15 C 1502.67 1240.79 1504.39 1241.31 1506.21 1241.7 L 1508.01 1243.52 C 1504.48 1247.95 1500.4 1247.57 1499.41 1251.79 C 1501.55 1253.18 1503.27 1253.61 1505.66 1254.42 C 1507.21 1258.95 1503.12 1256.61 1504.41 1261.95 C 1506.45 1263.12 1507.74 1263.95 1509.68 1265.29 C 1512.06 1269.75 1512.16 1285.94 1508.94 1290.66 C 1506.21 1292.57 1505.17 1292.22 1502.03 1292.1 C 1503.26 1294.51 1503.03 1293.57 1503.1 1296.34 L 1501.28 1297.72 C 1493.42 1295.94 1467.12 1280.32 1457.99 1276.21 C 1447.31 1271.4 1448.39 1267.27 1433.8 1264.03 C 1425.86 1246.22 1422.73 1248.06 1412.81 1233.45 C 1417.69 1227.21 1420.17 1224.01 1422.24 1215.59 C 1425.39 1202.79 1413.03 1195.15 1411.43 1183.45 C 1411.15 1181.43 1413.1 1173.07 1413.55 1171.01 C 1408.31 1165.95 1405.03 1162.95 1400.66 1157.11 C 1403.17 1152.43 1406.31 1147.26 1406.69 1141.88 C 1407.21 1134.5 1402.36 1128.37 1397.91 1122.98 C 1353.37 1068.97 1340.48 1115.42 1312.12 1111.81 C 1298.31 1110.05 1285.44 1098.28 1277.25 1087.68 C 1262.39 1068.44 1262.98 1057.95 1265.81 1034.82 C 1255.45 1010.83 1247.17 1006.82 1233.74 989.226 C 1226.56 979.819 1214.99 937.806 1211.89 925.073 L 1336.08 957.615 L 1351.88 898.394 C 1338.24 880.777 1303.07 846.837 1282.02 838.757 C 1262.01 831.073 1238.03 825.842 1217.93 815.27 L 1216.6 814.567 C 1209.16 798.736 1209.07 793.638 1208.93 776.329 C 1208.06 776.139 1207.19 775.937 1206.32 775.723 C 1196.35 773.221 1175.95 759.03 1166.91 752.8 C 1165.34 751.72 1161.97 746.073 1160.8 744.128 C 1136.6 742.288 1129.72 749.908 1129.84 720.855 C 1112.49 716.211 1094.45 714.1 1077.23 709.491 C 1074.24 708.692 1065.46 702.741 1061.98 700.811 C 1054.33 696.582 1048.04 694.504 1039.82 691.686 C 1034.79 680.441 1028.04 652.446 1020.14 648.131 C 997.111 635.548 994.484 637.345 997.419 609.124 C 997.761 605.837 996.565 596.665 993.914 593.276 C 982.396 578.552 965.348 568.054 952.311 554.567 C 947.339 549.485 941.352 544.137 936.107 539.204 C 923.624 527.462 911.502 514.683 898.214 503.904 C 886.074 494.056 870.878 486.827 859.52 475.943 C 856.026 472.595 857.012 467.124 857.246 462.607 C 843.552 448.255 827.198 437.462 812.868 423.601 C 814.753 403.925 817.037 371.608 821.246 353.228 C 842.229 356.169 870.438 358.059 892.045 360.202 z" fill="rgb(19,33,71)" transform="translate(0,0)"></path>
<path d="M 1674.94 1022.26 C 1677.15 1021.43 1680.4 1021.3 1682.88 1021.03 C 1683.35 1027.58 1678.48 1044.69 1677.04 1051.53 C 1676.85 1052.44 1679.8 1055.37 1680.53 1056.1 C 1680.37 1059.34 1679.32 1060.72 1677.81 1063.57 C 1678.06 1065.43 1678.16 1066.63 1678.11 1068.53 C 1675.39 1073.28 1668.11 1099.65 1667.16 1105.58 C 1668.17 1108.85 1669.85 1111.86 1668.71 1114.33 L 1666.77 1113.89 L 1667.52 1117.6 C 1665.51 1120.57 1665.07 1119.97 1661.05 1121.66 C 1664.05 1126.21 1667.81 1130.7 1662.32 1134.56 C 1656.63 1135.59 1655.3 1135.19 1649.52 1134.21 L 1646.15 1135.64 C 1642.63 1139.53 1628.1 1140.96 1622.73 1141.45 C 1621.9 1130.72 1621.28 1129.81 1615.99 1120.27 C 1616.51 1124.2 1617.24 1131.3 1618.2 1134.89 C 1614.43 1142.29 1609.34 1154.9 1602.97 1159.39 C 1600.2 1159.67 1600.37 1159.72 1597.7 1158.99 L 1596.46 1160.87 C 1597.14 1163.9 1597.79 1166.95 1598.41 1170 C 1582.11 1174.51 1579.11 1176.95 1563.09 1168.79 C 1560.93 1167.68 1560.24 1167.82 1557.87 1167.74 L 1557.31 1167.15 C 1555.06 1164.69 1553.99 1164.48 1553.83 1161.91 C 1557.02 1161.46 1555.74 1162.19 1558.06 1160.34 L 1557.84 1157.01 C 1556.48 1155.3 1556.15 1154.99 1554.49 1153.67 L 1553.03 1152.53 C 1552.07 1148.82 1552.4 1149.94 1554.19 1145.56 C 1551.45 1145.01 1548.71 1144.4 1546 1143.74 L 1545.06 1142.09 C 1545.36 1138.31 1546.02 1135.52 1544.5 1132.13 C 1539.44 1128.92 1545.07 1133.74 1537.15 1132.72 C 1535.78 1130.99 1534.66 1129.47 1533.38 1127.67 C 1529.78 1127.74 1529.58 1128 1526.31 1126.29 C 1522.29 1121.85 1525.16 1118.22 1521.55 1115.24 C 1510.68 1116.8 1513.63 1112.28 1511.43 1104.57 C 1511.35 1104.29 1500.22 1103.09 1499.4 1102 C 1495.75 1097.2 1498.34 1093.92 1493.2 1089.59 C 1489.83 1089.17 1487.44 1089.36 1485.11 1087.04 C 1481.82 1072.27 1476.07 1083 1466.98 1075.63 C 1465.27 1072.49 1465.35 1072.73 1465.62 1069.16 C 1468.2 1068.8 1468.44 1068.77 1470.88 1067.88 C 1470.27 1066.01 1469.88 1064.15 1469.53 1062.21 C 1487.09 1060.66 1670.96 1026.46 1674.94 1022.26 z" fill="rgb(255,255,255)" transform="translate(0,0)"></path>
<path d="M 1674.94 1022.26 C 1677.15 1021.43 1680.4 1021.3 1682.88 1021.03 C 1683.35 1027.58 1678.48 1044.69 1677.04 1051.53 C 1676.85 1052.44 1679.8 1055.37 1680.53 1056.1 C 1680.37 1059.34 1679.32 1060.72 1677.81 1063.57 C 1678.06 1065.43 1678.16 1066.63 1678.11 1068.53 L 1670.56 1067.54 C 1669.84 1061.9 1673.05 1050.31 1669.86 1047.21 C 1629.73 1055.96 1588.47 1062.59 1548.22 1071.03 C 1533.48 1074.12 1510.9 1077.58 1496.82 1081.46 C 1497.65 1083.09 1500.6 1089.03 1501.82 1089.43 C 1517.25 1094.47 1514.74 1094.79 1518.7 1109.4 L 1519.9 1109.13 C 1525.21 1107.99 1529.31 1107.16 1532.04 1112.92 C 1531.11 1115.27 1530.73 1115.98 1529.47 1118.18 C 1534.74 1128.43 1550.16 1120.17 1552.01 1139.02 L 1553 1140 C 1557.62 1139.87 1556.38 1139.28 1560.02 1141.24 C 1562.26 1144.91 1561.42 1145.07 1559.03 1149.08 L 1559.61 1150.02 L 1560.79 1149.66 C 1563.97 1148.7 1565.26 1147.99 1568.5 1148.71 C 1570.75 1150.74 1570.18 1149.47 1570.67 1152.32 C 1567.72 1156.16 1566.06 1157.52 1562.41 1160.82 C 1568.21 1163.35 1577.55 1167.99 1583.67 1167.73 C 1591.66 1162.45 1584.15 1146.59 1603.96 1151.72 L 1604.84 1150.44 C 1603.05 1147.64 1603.24 1149.05 1603.29 1146.23 L 1611.07 1134.02 C 1608.14 1116.95 1613.91 1122.68 1617.53 1107.95 C 1618.88 1102.44 1617.68 1102.19 1621.18 1099.59 C 1625.73 1099.31 1623.75 1098.78 1627.44 1100.67 C 1633.26 1110 1615.59 1148.09 1643.35 1127.29 C 1643.48 1130.95 1642.86 1132.51 1644.59 1135 L 1646.15 1135.64 C 1642.63 1139.53 1628.1 1140.96 1622.73 1141.45 C 1621.9 1130.72 1621.28 1129.81 1615.99 1120.27 C 1616.51 1124.2 1617.24 1131.3 1618.2 1134.89 C 1614.43 1142.29 1609.34 1154.9 1602.97 1159.39 C 1600.2 1159.67 1600.37 1159.72 1597.7 1158.99 L 1596.46 1160.87 C 1597.14 1163.9 1597.79 1166.95 1598.41 1170 C 1582.11 1174.51 1579.11 1176.95 1563.09 1168.79 C 1560.93 1167.68 1560.24 1167.82 1557.87 1167.74 L 1557.31 1167.15 C 1555.06 1164.69 1553.99 1164.48 1553.83 1161.91 C 1557.02 1161.46 1555.74 1162.19 1558.06 1160.34 L 1557.84 1157.01 C 1556.48 1155.3 1556.15 1154.99 1554.49 1153.67 L 1553.03 1152.53 C 1552.07 1148.82 1552.4 1149.94 1554.19 1145.56 C 1551.45 1145.01 1548.71 1144.4 1546 1143.74 L 1545.06 1142.09 C 1545.36 1138.31 1546.02 1135.52 1544.5 1132.13 C 1539.44 1128.92 1545.07 1133.74 1537.15 1132.72 C 1535.78 1130.99 1534.66 1129.47 1533.38 1127.67 C 1529.78 1127.74 1529.58 1128 1526.31 1126.29 C 1522.29 1121.85 1525.16 1118.22 1521.55 1115.24 C 1510.68 1116.8 1513.63 1112.28 1511.43 1104.57 C 1511.35 1104.29 1500.22 1103.09 1499.4 1102 C 1495.75 1097.2 1498.34 1093.92 1493.2 1089.59 C 1489.83 1089.17 1487.44 1089.36 1485.11 1087.04 C 1481.82 1072.27 1476.07 1083 1466.98 1075.63 C 1465.27 1072.49 1465.35 1072.73 1465.62 1069.16 C 1468.2 1068.8 1468.44 1068.77 1470.88 1067.88 C 1470.27 1066.01 1469.88 1064.15 1469.53 1062.21 C 1487.09 1060.66 1670.96 1026.46 1674.94 1022.26 z" fill="rgb(19,33,71)" transform="translate(0,0)"></path>
<path d="M 1674.33 1029.26 L 1674.96 1029.77 C 1675.38 1032.52 1672.91 1036.78 1671.6 1039.83 C 1656.99 1044.44 1640.58 1047.12 1625.49 1049.98 L 1567.76 1061.16 C 1542.94 1066.05 1516.59 1072.1 1491.48 1075.73 C 1488.97 1076.09 1486.97 1075.13 1484.74 1074.09 C 1481.79 1072.98 1481.48 1073.13 1479.28 1071 L 1479.62 1069.22 C 1485.97 1065.42 1516.55 1061.54 1526.06 1059.48 C 1575.18 1048.87 1625.51 1040.84 1674.33 1029.26 z" fill="rgb(255,255,255)" transform="translate(0,0)"></path>
<path d="M 1662.59 1116.86 C 1658.93 1107.92 1661.95 1093.12 1664.35 1083.94 C 1666.14 1082.41 1666.79 1082.39 1669.1 1082.02 L 1669.31 1079.89 C 1667.41 1077.85 1667.1 1077.67 1665.77 1075.27 C 1666.47 1071.6 1668.08 1070.36 1670.56 1067.54 L 1678.11 1068.53 C 1675.39 1073.28 1668.11 1099.65 1667.16 1105.58 C 1668.17 1108.85 1669.85 1111.86 1668.71 1114.33 L 1666.77 1113.89 L 1662.59 1116.86 z" fill="rgb(14,27,67)" transform="translate(0,0)"></path>
<path d="M 1657.07 1122.84 L 1661.05 1121.66 C 1664.05 1126.21 1667.81 1130.7 1662.32 1134.56 C 1656.63 1135.59 1655.3 1135.19 1649.52 1134.21 L 1646.15 1135.64 L 1644.59 1135 C 1642.86 1132.51 1643.48 1130.95 1643.35 1127.29 C 1649.47 1129.3 1649.52 1128.3 1656.07 1125.9 L 1657.07 1122.84 z" fill="rgb(19,33,71)" transform="translate(0,0)"></path>
<path d="M 1662.59 1116.86 L 1666.77 1113.89 L 1667.52 1117.6 C 1665.51 1120.57 1665.07 1119.97 1661.05 1121.66 L 1657.07 1122.84 C 1657.08 1121.31 1657.24 1120.87 1657.51 1119.36 C 1659.3 1118.53 1660.84 1117.77 1662.59 1116.86 z" fill="rgb(43,62,94)" transform="translate(0,0)"></path>
<path d="M 1448.1 1038.78 C 1455.31 1030.27 1466.1 1026.07 1475.89 1020.88 L 1516.07 999.477 C 1548.86 981.942 1586.23 960.491 1619.3 944.799 C 1626.39 949.507 1642.74 961.634 1651.31 962.153 C 1656.24 962.451 1663.14 960.913 1668.72 962.404 C 1672.54 971.481 1657.9 974.472 1667.17 983.811 C 1671.11 987.772 1659.8 994.006 1663.91 1005.26 L 1669.75 1001.57 C 1672.75 1011.11 1681.68 1009.94 1682.88 1021.03 C 1680.4 1021.3 1677.15 1021.43 1674.94 1022.26 C 1670.96 1026.46 1487.09 1060.66 1469.53 1062.21 C 1469.88 1064.15 1470.27 1066.01 1470.88 1067.88 C 1468.44 1068.77 1468.2 1068.8 1465.62 1069.16 C 1464.06 1062.69 1457.92 1052.59 1451.63 1049.55 C 1449.14 1047.5 1449.3 1047.63 1446.21 1046.63 C 1445.87 1042.99 1446.6 1042.09 1448.1 1038.78 z" fill="rgb(255,255,255)" transform="translate(0,0)"></path>
<path d="M 1446.21 1046.63 C 1445.87 1042.99 1446.6 1042.09 1448.1 1038.78 C 1451.05 1039.85 1451.06 1040.1 1454.11 1039.89 C 1458.52 1039.44 1456.61 1038.97 1460.16 1040.59 C 1461.65 1044.42 1459.82 1046.26 1460.58 1049.48 C 1462.23 1049.06 1462.7 1048.98 1464.47 1049.02 C 1468.49 1052.57 1469.36 1057.08 1469.53 1062.21 C 1469.88 1064.15 1470.27 1066.01 1470.88 1067.88 C 1468.44 1068.77 1468.2 1068.8 1465.62 1069.16 C 1464.06 1062.69 1457.92 1052.59 1451.63 1049.55 C 1449.14 1047.5 1449.3 1047.63 1446.21 1046.63 z" fill="rgb(19,33,71)" transform="translate(0,0)"></path>
<path d="M 1446.21 1046.63 C 1445.87 1042.99 1446.6 1042.09 1448.1 1038.78 C 1451.05 1039.85 1451.06 1040.1 1454.11 1039.89 C 1456.5 1045.65 1456.61 1044.84 1451.63 1049.55 C 1449.14 1047.5 1449.3 1047.63 1446.21 1046.63 z" fill="rgb(14,27,67)" transform="translate(0,0)"></path>
<path d="M 1663.91 1005.26 L 1669.75 1001.57 C 1672.75 1011.11 1681.68 1009.94 1682.88 1021.03 C 1680.4 1021.3 1677.15 1021.43 1674.94 1022.26 C 1675.68 1018.33 1676.12 1019.15 1674.9 1015.94 C 1669.33 1014.56 1668.29 1018.78 1662.22 1017.71 C 1657 1011.36 1664.27 1013.02 1663.91 1005.26 z" fill="rgb(19,33,71)" transform="translate(0,0)"></path>
<path d="M 1467.64 736.4 C 1469.47 736.37 1471.76 736.967 1473.27 737.994 C 1500.33 756.397 1529.89 771.191 1557.62 787.989 C 1513.49 856.15 1568.82 895.174 1612.86 939.607 C 1602.31 947.29 1575.31 961.132 1562.45 968.112 C 1525.29 988.24 1487.96 1008.04 1450.46 1027.51 C 1456.35 981.174 1468.87 931.876 1479.35 886.235 C 1484.1 860.589 1489.46 835.06 1495.42 809.669 C 1488.53 807.05 1477.94 804.656 1470.65 802.489 C 1450.23 796.417 1428.99 791.362 1408.92 784.236 C 1405.53 798.205 1400.98 812.829 1397.31 826.868 C 1385.47 872.693 1373.14 918.391 1360.33 963.954 C 1354.56 962.556 1348.09 960.588 1342.3 958.972 C 1361.59 888.9 1379.35 818.42 1395.59 747.58 C 1420.08 744.201 1443.32 740.112 1467.64 736.4 z" fill="rgb(255,255,255)" transform="translate(0,0)"></path>
<path d="M 1660.58 765.372 C 1682.18 764.552 1700.07 772.829 1709.14 793.528 C 1711.48 798.884 1712.17 803.98 1715.36 809.039 C 1719.09 809.948 1732.74 786.917 1753.31 795.294 C 1784.69 808.069 1783.25 842.2 1773.74 868.573 C 1760.55 905.171 1724.58 930.174 1690.81 945.981 C 1679.3 951.047 1656.65 960.9 1645.46 955.021 C 1617.78 939.266 1593.54 917.682 1579.62 888.064 C 1566.31 859.746 1569.94 814.512 1598.1 795.606 C 1602.74 792.492 1605.6 802.185 1609.06 804.707 C 1618.27 801.857 1615.64 770.646 1660.58 765.372 z" fill="rgb(255,255,255)" transform="translate(0,0)"></path>
<path d="M 1406.69 961.855 C 1408.99 964.993 1411.67 989.451 1412.41 994.93 C 1418.67 997.486 1437.54 1004.19 1441.57 1007.95 L 1441.61 1009.74 C 1439.59 1011.69 1418.19 1023.02 1413.25 1026.16 C 1412.52 1038.49 1412.95 1049.48 1413.38 1061.77 C 1409.5 1058.09 1390.08 1036.35 1388.43 1035.24 C 1378.1 1038.66 1367.72 1041.95 1357.29 1045.09 C 1360.69 1033.72 1366.93 1025.57 1370.22 1014.18 L 1348.62 982.391 C 1361.42 985.815 1373.66 987.201 1386.76 988.488 C 1392.52 979.93 1400.35 970.176 1406.69 961.855 z" fill="rgb(255,255,255)" transform="translate(0,0)"></path>
<path d="M 1285.92 802.58 C 1299.25 806.763 1311.31 811.635 1324.39 816.474 C 1339.19 821.95 1353.83 826.736 1368.42 832.922 C 1364.69 847.71 1361.04 862.521 1357.49 877.354 L 1354.23 889.667 C 1347.89 883.567 1342.18 876.395 1335.4 870.233 C 1321.39 857.483 1306.39 845.933 1291.34 834.469 C 1290.47 825.094 1287.68 812.096 1285.92 802.58 z" fill="rgb(255,255,255)" transform="translate(0,0)"></path>
<path d="M 1576.33 779.161 C 1582.76 778.662 1595.74 780.265 1599.26 786.199 C 1598.37 789.094 1586.97 796.961 1583.7 801.065 C 1561.5 828.911 1563.13 861.935 1575.95 893.763 L 1576.57 895.843 L 1575.31 895.714 C 1569.06 889.362 1558.64 875.654 1554.82 867.691 C 1541.31 839.574 1545.69 794.198 1576.33 779.161 z" fill="rgb(255,255,255)" transform="translate(0,0)"></path>
<path d="M 811.55 608.835 C 813.797 611.619 826.364 673.634 827.92 681.233 C 852.022 683.206 876.789 683.707 900.832 686.219 C 886.873 697.805 855.131 711.46 836.289 723.67 C 840.366 747.064 849.248 777.942 855.276 801.318 C 836.853 784.147 818.955 763.897 799.258 748.204 L 791.572 752.492 L 735.389 789.903 C 745.925 766.349 756.283 742.715 766.462 719.005 C 749.191 703.822 721.31 683.106 706.786 668.48 C 732.112 672.241 757.836 673.266 783.375 676.772 C 792.982 656.968 803.519 629.481 811.55 608.835 z" fill="rgb(19,33,71)" transform="translate(0,0)"></path>
<path d="M 1038.99 494.486 C 1041.31 496.382 1043.21 497.529 1042.83 500.905 C 1040.53 521.2 1035.94 541.176 1032.02 561.206 C 1029.09 576.178 1026.34 591.285 1022.87 606.13 C 1022.42 608.091 1021.47 608.991 1020.05 610.247 C 1017.45 608.802 1017.45 608.968 1015.61 606.689 C 1022.92 577.502 1028.11 547.842 1033.73 518.294 C 1035.29 510.068 1036.55 502.521 1038.99 494.486 z" fill="rgb(19,33,71)" transform="translate(0,0)"></path>
<path d="M 1500.92 1240.15 C 1498.58 1234.08 1495.64 1225.4 1497.82 1218.86 C 1499.97 1217.36 1499.86 1217.44 1502.4 1216.75 C 1504.07 1210.56 1497.94 1208.66 1503.35 1202.83 C 1509.01 1200.67 1512.22 1205.47 1514.18 1202.66 C 1512.58 1197.22 1505.93 1190.83 1514.52 1186.19 C 1520.27 1187.35 1526.49 1196.57 1525.09 1201.73 C 1517.28 1205.78 1519.37 1204.49 1515.73 1214.31 L 1509.58 1207.82 L 1508.83 1207.84 C 1510.18 1210.9 1513.06 1216.35 1512.91 1219.37 C 1510.77 1220.32 1510.41 1220.29 1508.08 1220.71 L 1507.29 1222.1 L 1509.92 1226.62 L 1509.39 1228.11 L 1506.15 1228.74 C 1506.11 1233.39 1508.3 1236.2 1508.01 1243.52 L 1506.21 1241.7 C 1504.39 1241.31 1502.67 1240.79 1500.92 1240.15 z" fill="rgb(19,33,71)" transform="translate(0,0)"></path>
<path d="M 1557.87 1167.74 L 1556.42 1171.13 C 1559.66 1174.86 1565.56 1170.38 1568.14 1175.38 C 1564.79 1193.57 1550.42 1176.29 1544.6 1174.65 C 1544.59 1174.66 1543.4 1175.83 1543.44 1177.19 C 1543.53 1179.71 1535.52 1181.37 1532.33 1184.07 C 1529.54 1186.44 1530.24 1187.72 1529.37 1192.51 C 1526.87 1195.29 1528.34 1194.58 1525.13 1195.26 C 1520.91 1192.24 1519.74 1175.18 1524.94 1175.8 C 1541.8 1177.83 1529.2 1174.28 1537.5 1169.16 C 1539.72 1169.47 1539.65 1169.49 1541.93 1169.47 C 1542.84 1166.5 1543.02 1165.08 1543.45 1162.08 L 1544.64 1161.81 C 1547.81 1164.32 1547.5 1164.85 1548.93 1168.79 L 1549.45 1170.23 L 1551.92 1167.52 C 1554.26 1167.22 1554.97 1167.21 1557.31 1167.15 L 1557.87 1167.74 z" fill="rgb(14,27,67)" transform="translate(0,0)"></path>
<metadata><recraft-signature>{"signed_by": "recraft", "signature_b64": "NEeAtm7sXvWZwDqtx/42v7A7bDO43QYBfLLMwl/t7gJVgvK1XM9pC5GH+9FFJwEFFJPbkbpRoV17hLMm5T0SCw==", "signing_algo": "Ed25519", "generation_timestamp": 1784242680, "identifier": "a46c8a4c-a1f2-4c51-bcdb-1ea11fa8a3cb"}</recraft-signature></metadata></svg>